<svg id="visual" viewBox="0 0 900 600" width="900" height="600" xmlns="http://www.w3.org/2000/svg" xmlns:xlink="http://www.w3.org/1999/xlink" version="1.1"><rect x="0" y="0" width="900" height="600" fill="#001220"></rect><defs><linearGradient id="grad1_0" x1="33.3%" y1="0%" x2="100%" y2="100%"><stop offset="20%" stop-color="#001220" stop-opacity="1"></stop><stop offset="80%" stop-color="#001220" stop-opacity="1"></stop></linearGradient></defs><defs><linearGradient id="grad2_0" x1="0%" y1="0%" x2="66.7%" y2="100%"><stop offset="20%" stop-color="#001220" stop-opacity="1"></stop><stop offset="80%" stop-color="#001220" stop-opacity="1"></stop></linearGradient></defs><g transform="translate(900, 0)"><path d="M0 486.7C-56.4 453.9 -112.9 421.1 -162.3 391.7C-211.6 362.4 -253.9 336.6 -305.5 305.5C-357 274.4 -417.9 238.1 -449.7 186.3C-481.5 134.5 -484.1 67.2 -486.7 0L0 0Z" fill="#C9DFED"></path></g><g transform="translate(0, 600)"><path d="M0 -486.7C51.1 -455 102.3 -423.3 168.4 -406.5C234.5 -389.7 315.6 -387.8 344.2 -344.2C372.8 -300.5 349 -215.1 364 -150.8C379 -86.5 432.9 -43.2 486.7 0L0 0Z" fill="#C9DFED"></path></g></svg>