<svg id="visual" viewBox="0 0 900 600" width="900" height="600" xmlns="http://www.w3.org/2000/svg" xmlns:xlink="http://www.w3.org/1999/xlink" version="1.1"><rect width="900" height="600" fill="#C9DFED"></rect><g><g transform="translate(468 360)"><path d="M84 -28.6C93.7 2.7 76.1 41.5 46.5 62.7C16.9 83.9 -24.5 87.4 -53.4 67.8C-82.2 48.1 -98.5 5.4 -87.5 -27.6C-76.5 -60.7 -38.2 -84.1 -0.6 -83.9C37.1 -83.7 74.3 -59.9 84 -28.6Z" stroke="#052884" fill="none" stroke-width="19"></path></g><g transform="translate(885 456)"><path d="M47.4 -15.1C54.3 5.8 47.8 31.3 31.3 43.4C14.7 55.6 -11.9 54.3 -29.4 41.4C-46.8 28.5 -55.2 3.9 -48.7 -16.3C-42.3 -36.5 -21.2 -52.3 -0.4 -52.2C20.3 -52 40.6 -35.9 47.4 -15.1Z" stroke="#052884" fill="none" stroke-width="19"></path></g><g transform="translate(807 197)"><path d="M74.9 -25.5C83.5 2.1 67.5 36.5 42.8 53C18.1 69.5 -15.2 68.2 -39.6 51.2C-64 34.3 -79.4 1.7 -71.3 -25.2C-63.3 -52.1 -31.6 -73.4 0.8 -73.6C33.2 -73.9 66.3 -53.1 74.9 -25.5Z" stroke="#052884" fill="none" stroke-width="19"></path></g><g transform="translate(198 61)"><path d="M42.5 -11.8C49.2 7 44.9 31.3 30.8 41.3C16.7 51.3 -7.1 46.9 -22.1 34.9C-37.2 23 -43.4 3.4 -38.3 -13.1C-33.1 -29.6 -16.6 -43.1 0.6 -43.3C17.9 -43.6 35.7 -30.5 42.5 -11.8Z" stroke="#052884" fill="none" stroke-width="19"></path></g></g></svg>