<svg id="visual" viewBox="0 0 900 600" width="900" height="900" xmlns="http://www.w3.org/2000/svg" xmlns:xlink="http://www.w3.org/1999/xlink" version="1.1"><rect x="0" y="0" width="900" height="600" fill="#6a61ff"></rect><path d="M0 454L21.5 449.7C43 445.3 86 436.7 128.8 438.5C171.7 440.3 214.3 452.7 257.2 460.7C300 468.7 343 472.3 385.8 457.3C428.7 442.3 471.3 408.7 514.2 396.7C557 384.7 600 394.3 642.8 418.2C685.7 442 728.3 480 771.2 481C814 482 857 446 878.5 428L900 410L900 601L878.5 601C857 601 814 601 771.2 601C728.3 601 685.7 601 642.8 601C600 601 557 601 514.2 601C471.3 601 428.7 601 385.8 601C343 601 300 601 257.2 601C214.3 601 171.7 601 128.8 601C86 601 43 601 21.5 601L0 601Z" fill="#FFFFFF" stroke-linecap="round" stroke-linejoin="miter"></path></svg>