<svg id="visual" viewBox="0 0 900 600" width="900" height="1000" xmlns="http://www.w3.org/2000/svg" xmlns:xlink="http://www.w3.org/1999/xlink" version="1.1"><rect x="0" y="0" width="900" height="600" fill="#7FB9E7"></rect><path d="M0 492L21.5 493.2C43 494.3 86 496.7 128.8 494.8C171.7 493 214.3 487 257.2 496.5C300 506 343 531 385.8 529.5C428.7 528 471.3 500 514.2 486.2C557 472.3 600 472.7 642.8 481C685.7 489.3 728.3 505.7 771.2 509.7C814 513.7 857 505.3 878.5 501.2L900 497L900 601L878.5 601C857 601 814 601 771.2 601C728.3 601 685.7 601 642.8 601C600 601 557 601 514.2 601C471.3 601 428.7 601 385.8 601C343 601 300 601 257.2 601C214.3 601 171.7 601 128.8 601C86 601 43 601 21.5 601L0 601Z" fill="#FFFFFF" stroke-linecap="round" stroke-linejoin="miter"></path></svg>