<?xml version="1.0" encoding="UTF-8"?>
<svg version="1.1" xmlns="http://www.w3.org/2000/svg" width="279" height="130">
<path d="M0 0 C-0.4640625 1.1446875 -0.4640625 1.1446875 -0.9375 2.3125 C-1.67893593 4.18789677 -2.36228217 6.08684652 -3 8 C-4.13025634 9.13025634 -5.2653445 10.25601832 -6.421875 11.359375 C-9.14306242 14.18833222 -11.45549996 17.35349995 -13.86328125 20.44921875 C-15.92843442 22.91456614 -18.11001818 24.98036144 -20.5 27.125 C-23.26152008 29.76290829 -23.26152008 29.76290829 -24.5 33.2734375 C-24.55248058 35.72189158 -24.55248058 35.72189158 -24 39 C-21.03 40.65 -18.06 42.3 -15 44 C-18 47 -18 47 -20.4375 47.625 C-24.52486971 49.81822277 -25.449469 53.79017841 -27 58 C-29.29762563 55.91407971 -29.99279411 55.02353924 -30.9375 51.9375 C-31.71197578 48.94346183 -31.71197578 48.94346183 -33.875 47.625 C-36.27040939 46.81188912 -36.27040939 46.81188912 -40 47 C-40.33 46.67 -40.66 46.34 -41 46 C-40.63370322 49.13968669 -40.38768016 51.22463968 -39 54 C-36.20576225 55.96106747 -33.23656974 56.96993593 -30 58 C-28.824375 58.4125 -27.64875 58.825 -26.4375 59.25 C-25.633125 59.4975 -24.82875 59.745 -24 60 C-23.67 59.34 -23.34 58.68 -23 58 C-21.68 59.65 -20.36 61.3 -19 63 C-23.03947968 64.84411029 -26.88579213 66.25974241 -31.1875 67.375 C-34.56248554 68.36129714 -35.95013472 68.95488379 -38.625 71.375 C-40.16734723 74.31948107 -40.43599589 75.7300308 -40 79 C-38.32166718 80.70118088 -38.32166718 80.70118088 -36 81.9375 C-35.18660156 82.43636719 -34.37320313 82.93523437 -33.53515625 83.44921875 C-32.69855469 83.96097656 -31.86195313 84.47273438 -31 85 C-29.46405268 86.0617961 -27.94187293 87.14392259 -26.4375 88.25 C-25.77621094 88.72953125 -25.11492187 89.2090625 -24.43359375 89.703125 C-23.96050781 90.13109375 -23.48742187 90.5590625 -23 91 C-23 91.66 -23 92.32 -23 93 C-22.18789063 93.31324219 -22.18789063 93.31324219 -21.359375 93.6328125 C-18.10119712 95.52082949 -15.76286772 98.11971163 -13.25 100.875 C-12.7250293 101.44565186 -12.20005859 102.01630371 -11.65917969 102.60424805 C-6.79484123 108.01080405 -2.80103476 113.79536973 1 120 C-0.48140376 124.28173475 -3.53731207 125.91117757 -7.3125 128 C-7.93189453 128.34812744 -8.55128906 128.69625488 -9.18945312 129.05493164 C-25.70207068 138.00485418 -46.9890199 139.99417512 -65.08984375 134.97265625 C-86.53328373 127.80565416 -102.43874365 114.96044459 -112.9375 94.9375 C-121.79855112 76.21462021 -122.11063 55.55854239 -116 36 C-114.34961901 31.49249569 -112.25449092 27.23404393 -110 23 C-109.63777344 22.28199219 -109.27554688 21.56398437 -108.90234375 20.82421875 C-106.80049224 16.85027278 -104.27062567 14.05258396 -101 11 C-100.36191406 10.319375 -99.72382813 9.63875 -99.06640625 8.9375 C-72.54785292 -19.04642793 -31.15384662 -20.76923108 0 0 Z M-32 38 C-33.98 38.99 -33.98 38.99 -36 40 C-36 40.66 -36 41.32 -36 42 C-34.35 41.34 -32.7 40.68 -31 40 C-31.33 39.34 -31.66 38.68 -32 38 Z M-62.3125 53.375 C-71.04437488 56.82510817 -79.85551526 58.93733427 -89 61 C-86.18515955 63.81484045 -83.7833753 63.62757042 -79.875 64.125 C-78.59367187 64.29257813 -77.31234375 64.46015625 -75.9921875 64.6328125 C-74.51105469 64.81457031 -74.51105469 64.81457031 -73 65 C-72.67 64.01 -72.34 63.02 -72 62 C-70.26586914 61.14038086 -70.26586914 61.14038086 -68.03515625 60.46484375 C-67.23529297 60.21283203 -66.43542969 59.96082031 -65.61132812 59.70117188 C-64.3496582 59.3231543 -64.3496582 59.3231543 -63.0625 58.9375 C-61.40588455 58.43120567 -59.75084619 57.91971373 -58.09765625 57.40234375 C-57.36039307 57.18054443 -56.62312988 56.95874512 -55.86352539 56.73022461 C-53.79696708 56.06389002 -53.79696708 56.06389002 -52 54 C-52 53.01 -52 52.02 -52 51 C-56.20914487 51 -58.45404088 51.80622579 -62.3125 53.375 Z M-65 66 C-63.35889552 69.28220895 -60.30677012 69.74570789 -57 71 C-56.01 71 -55.02 71 -54 71 C-54 70.34 -54 69.68 -54 69 C-55.0725 68.505 -56.145 68.01 -57.25 67.5 C-57.85328125 67.2215625 -58.4565625 66.943125 -59.078125 66.65625 C-61.29242836 65.78457076 -61.29242836 65.78457076 -65 66 Z " fill="#83B9E7" transform="translate(289,120)"/>
<path d="M0 0 C-0.4640625 1.1446875 -0.4640625 1.1446875 -0.9375 2.3125 C-1.67893593 4.18789677 -2.36228217 6.08684652 -3 8 C-4.13025634 9.13025634 -5.2653445 10.25601832 -6.421875 11.359375 C-8.38118194 13.39627825 -10.0755499 15.5831861 -11.8125 17.8125 C-17.22501031 24.65203751 -22.67298978 30.24103503 -30 35 C-32.30055378 36.57051314 -34.587208 38.160968 -36.875 39.75 C-37.46796875 40.16121094 -38.0609375 40.57242188 -38.671875 40.99609375 C-40.1149178 41.99691375 -41.55750704 42.99838768 -43 44 C-45 41 -45 41 -45 38 C-45.66 38 -46.32 38 -47 38 C-47.12955078 38.92232422 -47.12955078 38.92232422 -47.26171875 39.86328125 C-48.41907555 46.52073733 -48.41907555 46.52073733 -51.5 49.0625 C-54 50 -54 50 -56 50 C-56 50.66 -56 51.32 -56 52 C-57.60149886 52.67305018 -59.20631029 53.33822227 -60.8125 54 C-62.15248047 54.556875 -62.15248047 54.556875 -63.51953125 55.125 C-66 56 -66 56 -69 56 C-69.33 56.66 -69.66 57.32 -70 58 C-85.79092801 62.81430732 -102.63858968 63.34445074 -119 63 C-118.85973717 60.68715544 -118.71264442 58.37472409 -118.5625 56.0625 C-118.48128906 54.77472656 -118.40007812 53.48695313 -118.31640625 52.16015625 C-118 49 -118 49 -117 48 C-117.1546875 46.205625 -117.1546875 46.205625 -117.3125 44.375 C-117.38144798 39.6099282 -116.0021178 35.61882008 -114.25 31.25 C-113.99774658 30.61239746 -113.74549316 29.97479492 -113.4855957 29.31787109 C-111.8160478 25.33908578 -109.74546019 22.29916645 -107 19 C-106.67 18.01 -106.34 17.02 -106 16 C-104.90324563 14.83469848 -103.7938202 13.67942374 -102.6328125 12.578125 C-101.40665412 11.39303413 -100.22004914 10.16679949 -99.0546875 8.921875 C-72.52067817 -19.03869397 -31.15724482 -20.77149654 0 0 Z " fill="#0A2A84" transform="translate(289,120)"/>
<path d="M0 0 C-0.020625 1.216875 -0.04125 2.43375 -0.0625 3.6875 C0.0876062 5.91850406 0.0876062 5.91850406 1 8 C3.77326033 10.20291056 6.74480405 11.63216009 10 13 C8.12733197 15.0300807 7.30031002 15.92299743 4.5625 16.625 C0.47513029 18.81822277 -0.449469 22.79017841 -2 27 C-4.29762563 24.91407971 -4.99279411 24.02353924 -5.9375 20.9375 C-6.71197578 17.94346183 -6.71197578 17.94346183 -8.875 16.625 C-11.27040939 15.81188912 -11.27040939 15.81188912 -15 16 C-15.33 15.67 -15.66 15.34 -16 15 C-15.63370322 18.13968669 -15.38768016 20.22463968 -14 23 C-11.20576225 24.96106747 -8.23656974 25.96993593 -5 27 C-3.824375 27.4125 -2.64875 27.825 -1.4375 28.25 C-0.633125 28.4975 0.17125 28.745 1 29 C1.33 28.34 1.66 27.68 2 27 C3.32 28.65 4.64 30.3 6 32 C1.96052032 33.84411029 -1.88579213 35.25974241 -6.1875 36.375 C-9.56129965 37.35945218 -10.91947865 37.92537046 -13.5625 40.375 C-14.99302822 42.98726893 -15.66314239 45.05249593 -16 48 C-17.625 48.75 -17.625 48.75 -20 49 C-25.712 45.864 -25.712 45.864 -27 42 C-27.66 41.67 -28.32 41.34 -29 41 C-29 40.01 -29 39.02 -29 38 C-31.31 37.34 -33.62 36.68 -36 36 C-36 35.34 -36 34.68 -36 34 C-37.27875 33.87625 -38.5575 33.7525 -39.875 33.625 C-43.75 33.25 -43.75 33.25 -46 31 C-45.34 31 -44.68 31 -44 31 C-44 30.34 -44 29.68 -44 29 C-42.94039062 28.68546875 -41.88078125 28.3709375 -40.7890625 28.046875 C-39.40079208 27.61538554 -38.01278456 27.18304956 -36.625 26.75 C-35.92632812 26.54503906 -35.22765625 26.34007812 -34.5078125 26.12890625 C-30.39853211 24.86336256 -30.39853211 24.86336256 -27.5234375 21.828125 C-27.35070312 21.22484375 -27.17796875 20.6215625 -27 20 C-28.32 19.67 -29.64 19.34 -31 19 C-29.6078125 18.5359375 -29.6078125 18.5359375 -28.1875 18.0625 C-23.76831801 15.2030293 -23.18366998 11.95272438 -22 7 C-21.34 7 -20.68 7 -20 7 C-19.34 8.65 -18.68 10.3 -18 12 C-15.91598726 10.56347677 -13.83277356 9.12581793 -11.75 7.6875 C-10.87021484 7.08131836 -10.87021484 7.08131836 -9.97265625 6.46289062 C-7.49520223 4.75094206 -5.03852834 3.02927899 -2.640625 1.20703125 C-1 0 -1 0 0 0 Z M-7 7 C-8.98 7.99 -8.98 7.99 -11 9 C-11 9.66 -11 10.32 -11 11 C-9.35 10.34 -7.7 9.68 -6 9 C-6.33 8.34 -6.66 7.68 -7 7 Z " fill="#E8A44A" transform="translate(264,151)"/>
<path d="M0 0 C2.73402972 0.44680641 3.26575387 1.14636017 5.0078125 3.328125 C6.16045431 5.93555038 7.19891323 8.501235 8.1796875 11.171875 C8.60970062 12.32012756 8.60970062 12.32012756 9.04840088 13.49157715 C9.65079943 15.10727832 10.24899481 16.72455201 10.84326172 18.34326172 C11.75619965 20.82374283 12.6876949 23.29668786 13.62109375 25.76953125 C14.20425614 27.34072647 14.78632512 28.91232803 15.3671875 30.484375 C15.64729675 31.22506226 15.92740601 31.96574951 16.21600342 32.72888184 C18.12266338 37.98357235 18.12266338 37.98357235 17.0078125 41.328125 C14.0378125 41.328125 11.0678125 41.328125 8.0078125 41.328125 C7.0178125 39.018125 6.0278125 36.708125 5.0078125 34.328125 C0.3878125 34.328125 -4.2321875 34.328125 -8.9921875 34.328125 C-9.4871875 36.803125 -9.4871875 36.803125 -9.9921875 39.328125 C-10.3221875 39.988125 -10.6521875 40.648125 -10.9921875 41.328125 C-13.9621875 41.328125 -16.9321875 41.328125 -19.9921875 41.328125 C-19.42708965 36.50590578 -18.43282138 32.25560954 -16.77734375 27.6953125 C-16.33841797 26.47714844 -15.89949219 25.25898438 -15.44726562 24.00390625 C-14.98315113 22.73695051 -14.51895774 21.47002368 -14.0546875 20.203125 C-13.59380341 18.92860137 -13.13351205 17.65386324 -12.67382812 16.37890625 C-6.83365598 0.25216443 -6.83365598 0.25216443 0 0 Z M-1.9921875 13.328125 C-0.9921875 16.328125 -0.9921875 16.328125 -0.9921875 16.328125 Z M-2.9921875 17.328125 C-4.75681433 20.41622195 -4.9921875 21.56124636 -4.9921875 25.328125 C-2.0221875 25.823125 -2.0221875 25.823125 1.0078125 26.328125 C1.81748688 23.41329722 2.22627243 21.86699283 1.0703125 19.015625 C0.7196875 18.45875 0.3690625 17.901875 0.0078125 17.328125 C-0.9821875 17.328125 -1.9721875 17.328125 -2.9921875 17.328125 Z " fill="#84B9E1" transform="translate(323.9921875,180.671875)"/>
<path d="M0 0 C3.96 0 7.92 0 12 0 C13.00380916 2.79035046 14.0031945 5.58214855 15 8.375 C15.42925781 9.56609375 15.42925781 9.56609375 15.8671875 10.78125 C16.13789063 11.54179687 16.40859375 12.30234375 16.6875 13.0859375 C16.93886719 13.7876709 17.19023437 14.4894043 17.44921875 15.21240234 C18 17 18 17 18 19 C18.66 19.33 19.32 19.66 20 20 C20.74609375 21.93359375 20.74609375 21.93359375 21.4375 24.4375 C21.69015625 25.33082031 21.9428125 26.22414062 22.203125 27.14453125 C22.59757812 28.55798828 22.59757812 28.55798828 23 30 C23.55853913 31.8761837 24.12083255 33.75125529 24.6875 35.625 C25.120625 37.06875 25.55375 38.5125 26 40 C22.7 40 19.4 40 16 40 C15.34 38.02 14.68 36.04 14 34 C9.05 33.67 4.1 33.34 -1 33 C-1.33 35.31 -1.66 37.62 -2 40 C-5.3 40 -8.6 40 -12 40 C-12 35.60563336 -10.85968769 32.29654011 -9.375 28.2421875 C-9.10864746 27.49792511 -8.84229492 26.75366272 -8.56787109 25.98684692 C-7.71785658 23.61404536 -6.85949583 21.24438197 -6 18.875 C-5.14161033 16.49810557 -4.28505263 14.1205912 -3.43212891 11.74172974 C-2.901394 10.26252292 -2.36730804 8.78451341 -1.82958984 7.30783081 C-0.46964822 3.74470768 -0.46964822 3.74470768 0 0 Z M6 12 C6 13.65 6 15.3 6 17 C5.34 17 4.68 17 4 17 C3.34 19.64 2.68 22.28 2 25 C4.97 25 7.94 25 11 25 C9.68 20.71 8.36 16.42 7 12 C6.67 12 6.34 12 6 12 Z " fill="#274597" transform="translate(316,133)"/>
<path d="M0 0 C2.77319878 0.44119071 4.10307668 0.12057699 6.75 -0.5625 C8.42312803 -0.26328187 10.09118649 0.06705889 11.75 0.4375 C11.77465504 4.83406173 11.79283842 9.2305872 11.80493164 13.62719727 C11.80997121 15.12394918 11.81680287 16.62069616 11.82543945 18.11743164 C11.83752159 20.26449807 11.84323191 22.41149962 11.84765625 24.55859375 C11.85289307 25.8520874 11.85812988 27.14558105 11.86352539 28.47827148 C11.75 31.4375 11.75 31.4375 10.75 32.4375 C3.45588235 32.67279412 3.45588235 32.67279412 -0.25 31.4375 C-1.24 31.9325 -1.24 31.9325 -2.25 32.4375 C-6.40961633 32.86245098 -10.10506505 32.90588248 -14 31.3125 C-18.43493675 27.61671937 -21.33932611 24.85003952 -22.1875 19.0625 C-22.51959574 13.08477666 -21.79846447 8.31195699 -17.875 3.5625 C-12.11537834 -1.10005086 -7.17626047 -1.24204508 0 0 Z M-9.625 8.8125 C-12.61463892 11.2990616 -12.61463892 11.2990616 -12.9375 15.375 C-12.67155081 18.67771782 -12.11971654 19.62526145 -10.125 22.5 C-7.39510324 24.70570795 -7.39510324 24.70570795 -4.125 24.5625 C-0.55207017 23.16439702 0.19217315 21.88111724 1.75 18.4375 C3.09359742 15.42289235 3.09359742 15.42289235 1.6875 12.375 C-0.04025471 9.27898868 -0.04025471 9.27898868 -3.0625 7.8125 C-6.35785095 7.16471037 -6.35785095 7.16471037 -9.625 8.8125 Z " fill="#8ABBE0" transform="translate(424.25,189.5625)"/>
<path d="M0 0 C3.45897087 2.90282262 5.572802 5.718406 7 10 C7 12.64 7 15.28 7 18 C-0.26 18.33 -7.52 18.66 -15 19 C-12.78065836 22.32901247 -11.65316671 22.75023244 -8 24 C-7.67 23.34 -7.34 22.68 -7 22 C-6.01 22 -5.02 22 -4 22 C-4 21.34 -4 20.68 -4 20 C-0.7 20 2.6 20 6 20 C4.22580645 27.09677419 4.22580645 27.09677419 0.625 29.75 C-5.30925756 31.79629571 -11.63145784 32.54126693 -17.484375 29.86328125 C-20.73448779 27.60362254 -22.66195252 25.64792433 -24.5 22.125 C-25.44231505 16.23553097 -25.17148809 10.85744045 -24 5 C-23.34 5 -22.68 5 -22 5 C-21.67 4.01 -21.34 3.02 -21 2 C-14.09544415 -3.42703773 -7.76447715 -4.04044893 0 0 Z M-14 8 C-13.67 8.99 -13.34 9.98 -13 11 C-10.36 11 -7.72 11 -5 11 C-5 9.68 -5 8.36 -5 7 C-8.77897651 5.9502843 -10.64919071 5.89023119 -14 8 Z " fill="#0A287D" transform="translate(435,142)"/>
<path d="M0 0 C3.5 0.125 3.5 0.125 4.5 1.125 C4.6081579 2.49307645 4.65570171 3.86608297 4.67578125 5.23828125 C4.69962891 6.07423828 4.72347656 6.91019531 4.74804688 7.77148438 C4.79072653 9.53687007 4.82213327 11.30256733 4.84179688 13.06835938 C4.97788416 18.24520917 4.97788416 18.24520917 7.37890625 22.7265625 C9.44204866 24.35580473 9.44204866 24.35580473 12.125 24.1875 C14.64679642 23.34375396 14.64679642 23.34375396 15.64453125 21.0703125 C16.73275557 17.32364063 16.67772599 13.79582481 16.5625 9.9375 C16.38041631 2.36416737 16.38041631 2.36416737 17.5 0.125 C23.65234375 0.02734375 23.65234375 0.02734375 25.5 0.125 C27.41219585 2.03719585 26.74435298 5.46145504 26.81640625 8.00390625 C26.83718735 8.6905687 26.85796844 9.37723114 26.87937927 10.08470154 C26.94494143 12.28552935 27.00379015 14.48647975 27.0625 16.6875 C27.10567892 18.17644514 27.149293 19.66537773 27.19335938 21.15429688 C27.3006293 24.81106553 27.40187772 28.46797318 27.5 32.125 C23.77641513 33.98679243 19.34840608 33.39612982 15.25 33.4375 C13.83654297 33.48100586 13.83654297 33.48100586 12.39453125 33.52539062 C6.61824675 33.5780496 2.91071952 33.25491285 -1.5 29.125 C-5.39826304 23.79355202 -4.88122811 18.14015545 -4.75 11.8125 C-4.74484375 10.79865234 -4.7396875 9.78480469 -4.734375 8.74023438 C-4.64248558 0.16580306 -4.64248558 0.16580306 0 0 Z " fill="#8BBDE3" transform="translate(349.5,188.875)"/>
<path d="M0 0 C5.71226917 1.87159673 8.60548251 3.6837369 11.9140625 8.75 C12.91310557 11.7845687 13.03112366 14.55197026 13.01171875 17.734375 C13.00849609 18.66894531 13.00527344 19.60351562 13.00195312 20.56640625 C12.99357422 21.53449219 12.98519531 22.50257813 12.9765625 23.5 C12.97205078 24.48355469 12.96753906 25.46710938 12.96289062 26.48046875 C12.9511275 28.90367194 12.93319268 31.32684377 12.9140625 33.75 C9.9440625 33.75 6.9740625 33.75 3.9140625 33.75 C2.76803528 31.45794556 2.82375847 30.26167765 2.88671875 27.72265625 C2.90508789 26.53446289 2.90508789 26.53446289 2.92382812 25.32226562 C2.95890416 23.65290627 2.99794863 21.98362544 3.04101562 20.31445312 C3.05197266 19.52103516 3.06292969 18.72761719 3.07421875 17.91015625 C3.09105713 17.18449463 3.10789551 16.45883301 3.12524414 15.71118164 C3.03208575 13.42606786 3.03208575 13.42606786 0.9140625 10.75 C-2.5859375 10.33333333 -2.5859375 10.33333333 -6.0859375 10.75 C-8.56651378 13.23057628 -8.37612755 14.11192464 -8.5 17.5390625 C-8.55800781 18.95058594 -8.55800781 18.95058594 -8.6171875 20.390625 C-8.66359375 21.86789063 -8.66359375 21.86789063 -8.7109375 23.375 C-8.76894531 24.86386719 -8.76894531 24.86386719 -8.828125 26.3828125 C-8.9225689 28.83835385 -9.00813625 31.2938841 -9.0859375 33.75 C-12.0559375 33.75 -15.0259375 33.75 -18.0859375 33.75 C-18.0859375 23.19 -18.0859375 12.63 -18.0859375 1.75 C-13.75260417 1.75 -9.41927083 1.75 -5.0859375 1.75 C-2.0859375 -0.25 -2.0859375 -0.25 0 0 Z " fill="#0E2B7B" transform="translate(464.0859375,139.25)"/>
<path d="M0 0 C0.68835938 0.07734375 1.37671875 0.1546875 2.0859375 0.234375 C4.97950746 1.39180298 5.48617201 3.2890997 6.75 6.0625 C7.17796875 6.98160156 7.6059375 7.90070313 8.046875 8.84765625 C8.36140625 9.55792969 8.6759375 10.26820313 9 11 C5.72429875 12.09190042 3.43202271 12.28600189 0 12 C-0.474375 11.505 -0.94875 11.01 -1.4375 10.5 C-3.08339692 8.59216358 -3.08339692 8.59216358 -6.6875 8.8125 C-7.780625 8.874375 -8.87375 8.93625 -10 9 C-11.99475484 13.11418186 -12.34358086 16.44755354 -12 21 C-10.05541686 23.3721969 -10.05541686 23.3721969 -6.5 23.3125 C-4.7675 23.1578125 -4.7675 23.1578125 -3 23 C-2.34 22.01 -1.68 21.02 -1 20 C1.1640625 19.70703125 1.1640625 19.70703125 3.625 19.8125 C4.85089844 19.85310547 4.85089844 19.85310547 6.1015625 19.89453125 C6.72804688 19.92933594 7.35453125 19.96414062 8 20 C7.54936121 24.84436703 6.46006039 27.53993961 3 31 C-2.08218447 32.74630127 -7.73277433 32.74360833 -13 32 C-17.07848714 29.78175226 -19.45402177 26.81896734 -22 23 C-23.58840303 16.39019386 -22.63271259 11.25151892 -20.2109375 4.9453125 C-16.12668643 -1.61583922 -6.68327927 -1.5212912 0 0 Z " fill="#122F7D" transform="translate(366,141)"/>
<path d="M0 0 C4 5.18918919 4 5.18918919 4 9 C2.56344146 9.08131463 1.1255517 9.13933559 -0.3125 9.1875 C-1.11300781 9.22230469 -1.91351563 9.25710937 -2.73828125 9.29296875 C-5.53040367 8.93129486 -6.10344033 7.97901879 -8 6 C-11.62535976 5.7496423 -11.62535976 5.7496423 -15 6 C-16.79885972 9.82257691 -17.36703674 12.7790775 -17 17 C-16.34 17.99 -15.68 18.98 -15 20 C-11.43230448 20.73606499 -11.43230448 20.73606499 -8 21 C-8 20.34 -8 19.68 -8 19 C-7.34 19 -6.68 19 -6 19 C-6 18.34 -6 17.68 -6 17 C-2.7 17 0.6 17 4 17 C3.5535141 22.06017356 1.404811 24.43305514 -2 28 C-5.16009533 29.05336511 -7.5553136 29.20032888 -10.875 29.25 C-12.41800781 29.28867188 -12.41800781 29.28867188 -13.9921875 29.328125 C-18.64654795 28.82037659 -21.16666791 26.92592454 -24.25 23.5 C-27.80404046 18.42279934 -27.60211747 12.98772372 -27 7 C-25.7288558 3.15893384 -23.79619066 0.61245435 -20.5625 -1.875 C-13.70234523 -4.88677527 -6.0188329 -4.84850428 0 0 Z " fill="#3C5391" transform="translate(404,144)"/>
<path d="M0 0 C2.05078125 0.03255208 4.1015625 0.06510417 6.15234375 0.09765625 C6.15234375 2.73765625 6.15234375 5.37765625 6.15234375 8.09765625 C8.46234375 8.09765625 10.77234375 8.09765625 13.15234375 8.09765625 C13.15234375 10.73765625 13.15234375 13.37765625 13.15234375 16.09765625 C8.40234375 17.22265625 8.40234375 17.22265625 6.15234375 16.09765625 C6.15234375 21.04765625 6.15234375 25.99765625 6.15234375 31.09765625 C8.46234375 31.42765625 10.77234375 31.75765625 13.15234375 32.09765625 C13.15234375 34.73765625 13.15234375 37.37765625 13.15234375 40.09765625 C3.36648913 40.67329476 3.36648913 40.67329476 -0.84765625 37.09765625 C-3.76666708 32.85370433 -3.23417612 27.71587281 -3.32617188 22.765625 C-3.39801441 20.86968303 -3.61385282 18.98049805 -3.84765625 17.09765625 C-4.83765625 16.43765625 -5.82765625 15.77765625 -6.84765625 15.09765625 C-7.03515625 11.47265625 -7.03515625 11.47265625 -6.84765625 8.09765625 C-5.52765625 8.09765625 -4.20765625 8.09765625 -2.84765625 8.09765625 C-2.86828125 6.96328125 -2.88890625 5.82890625 -2.91015625 4.66015625 C-2.83102423 0.1496313 -2.83102423 0.1496313 0 0 Z " fill="#072782" transform="translate(486.84765625,132.90234375)"/>
<path d="M0 0 C3.03711191 0.0885765 3.03711191 0.0885765 6.125 -0.5625 C7.07375 -0.706875 8.0225 -0.85125 9 -1 C10 0 10 0 10.09765625 1.84765625 C10.06510417 3.8984375 10.03255208 5.94921875 10 8 C9.43410156 8.19335938 8.86820312 8.38671875 8.28515625 8.5859375 C7.55167969 8.84632813 6.81820313 9.10671875 6.0625 9.375 C5.33160156 9.63023437 4.60070312 9.88546875 3.84765625 10.1484375 C1.81317884 10.85271413 1.81317884 10.85271413 1 13 C0.84932786 14.4465242 0.75138964 15.8987934 0.68359375 17.3515625 C0.64169922 18.20234375 0.59980469 19.053125 0.55664062 19.9296875 C0.51732422 20.81914062 0.47800781 21.70859375 0.4375 22.625 C0.39431641 23.5221875 0.35113281 24.419375 0.30664062 25.34375 C0.20043285 27.56231239 0.09970041 29.78113565 0 32 C-2.97 32 -5.94 32 -9 32 C-9.81633513 27.80563163 -10.06893987 23.99176143 -9.87890625 19.7265625 C-9.83056641 18.57285156 -9.78222656 17.41914063 -9.73242188 16.23046875 C-9.67634766 15.04066406 -9.62027344 13.85085937 -9.5625 12.625 C-9.51029297 11.41199219 -9.45808594 10.19898438 -9.40429688 8.94921875 C-9.27509608 5.96585487 -9.14014959 2.98286627 -9 0 C-5.93652871 -1.53173564 -3.31441515 -0.52332871 0 0 Z " fill="#82B9E6" transform="translate(391,190)"/>
<path d="M0 0 C4.94374364 0.48124938 7.70751628 1.86239984 11.625 4.875 C13.00558594 5.92300781 13.00558594 5.92300781 14.4140625 6.9921875 C15.26742188 7.65476563 16.12078125 8.31734375 17 9 C17.77085937 9.53882813 18.54171875 10.07765625 19.3359375 10.6328125 C19.88507813 11.08398438 20.43421875 11.53515625 21 12 C21 12.66 21 13.32 21 14 C21.54140625 14.20882812 22.0828125 14.41765625 22.640625 14.6328125 C25.89880288 16.52082949 28.23713228 19.11971163 30.75 21.875 C31.2749707 22.44565186 31.79994141 23.01630371 32.34082031 23.60424805 C37.20515877 29.01080405 41.19896524 34.79536973 45 41 C44.34 42.32 43.68 43.64 43 45 C40.82421875 45.453125 40.82421875 45.453125 38 45 C36.0204039 42.60380688 34.43667627 40.37092374 32.8125 37.75 C31.85244678 36.27681488 30.88752752 34.80679037 29.91796875 33.33984375 C29.43376465 32.60620605 28.94956055 31.87256836 28.45068359 31.11669922 C21.68349909 21.24266865 13.35202437 12.91356923 4.02148438 5.48632812 C2.64536659 4.3666298 1.31794494 3.18762184 0 2 C0 1.34 0 0.68 0 0 Z " fill="#042A7F" transform="translate(245,199)"/>
<path d="M0 0 C0.33 1.32 0.66 2.64 1 4 C0.030625 4.226875 -0.93875 4.45375 -1.9375 4.6875 C-5.29381041 6.6898418 -5.29381041 6.6898418 -5.62109375 10.09375 C-5.85492153 13.40331244 -5.99053513 16.68256258 -6 20 C-5.01 20.33 -4.02 20.66 -3 21 C-2.34 21.66 -1.68 22.32 -1 23 C-0.01 22.34 0.98 21.68 2 21 C1.34 20.34 0.68 19.68 0 19 C-0.046875 16.72265625 -0.046875 16.72265625 0.25 14.0625 C0.33765625 13.18722656 0.4253125 12.31195313 0.515625 11.41015625 C1 9 1 9 3 6 C3.66 6.33 4.32 6.66 5 7 C4.67 7.680625 4.34 8.36125 4 9.0625 C2.80995439 12.55825899 2.72297197 15.32937859 3 19 C4.94458314 21.3721969 4.94458314 21.3721969 8.5 21.3125 C10.2325 21.1578125 10.2325 21.1578125 12 21 C12.66 20.01 13.32 19.02 14 18 C16.1640625 17.70703125 16.1640625 17.70703125 18.625 17.8125 C19.85089844 17.85310547 19.85089844 17.85310547 21.1015625 17.89453125 C21.72804688 17.92933594 22.35453125 17.96414062 23 18 C22.54936121 22.84436703 21.46006039 25.53993961 18 29 C12.91781553 30.74630127 7.26722567 30.74360833 2 30 C-2.07848714 27.78175226 -4.45402177 24.81896734 -7 21 C-8.61349969 14.28575934 -7.67015609 8.96662071 -5 2.625 C-3.62144605 0.38484983 -2.60620002 0 0 0 Z " fill="#6577A7" transform="translate(351,143)"/>
<path d="M0 0 C2.31 0 4.62 0 7 0 C7 9.9 7 19.8 7 30 C4.69 30 2.38 30 0 30 C0 28.68 0 27.36 0 26 C-0.99 26.66 -1.98 27.32 -3 28 C-3.99 28 -4.98 28 -6 28 C-5.67 26.35 -5.34 24.7 -5 23 C-4.01 22.67 -3.02 22.34 -2 22 C-1.67 21.01 -1.34 20.02 -1 19 C-0.34 19 0.32 19 1 19 C0.93999894 17.3739713 0.8512115 15.74898451 0.75 14.125 C0.70359375 13.22007812 0.6571875 12.31515625 0.609375 11.3828125 C0.2453657 8.85779816 0.2453657 8.85779816 -1.90625 7.71875 C-3.92458905 7.02588734 -5.91354156 6.44709824 -8 6 C-8 5.34 -8 4.68 -8 4 C-8.66 4 -9.32 4 -10 4 C-10 3.01 -10 2.02 -10 1 C-2.25 1.875 -2.25 1.875 0 3 C0 2.01 0 1.02 0 0 Z " fill="#82B9E5" transform="translate(428,191)"/>
<path d="M0 0 C0.33 0 0.66 0 1 0 C1 2.64 1 5.28 1 8 C-6.26 8.33 -13.52 8.66 -21 9 C-18.78065836 12.32901247 -17.65316671 12.75023244 -14 14 C-13.67 13.34 -13.34 12.68 -13 12 C-12.01 12 -11.02 12 -10 12 C-10 11.34 -10 10.68 -10 10 C-6.7 10 -3.4 10 0 10 C-1.77419355 17.09677419 -1.77419355 17.09677419 -5.375 19.75 C-11.30925756 21.79629571 -17.63145784 22.54126693 -23.484375 19.86328125 C-26.73448779 17.60362254 -28.66195252 15.64792433 -30.5 12.125 C-31.10728961 8.32943992 -31.13247582 4.84179871 -31 1 C-30.67 1 -30.34 1 -30 1 C-30 3.31 -30 5.62 -30 8 C-29.01 8.33 -28.02 8.66 -27 9 C-26.66666667 10.33333333 -26.33333333 11.66666667 -26 13 C-25.01 13.33 -24.02 13.66 -23 14 C-23.495 12.8553125 -23.495 12.8553125 -24 11.6875 C-25 9 -25 9 -25 6 C-16.75 6.33 -8.5 6.66 0 7 C0 4.69 0 2.38 0 0 Z " fill="#6A80B3" transform="translate(441,152)"/>
<path d="M0 0 C-0.020625 1.216875 -0.04125 2.43375 -0.0625 3.6875 C0.0876062 5.91850406 0.0876062 5.91850406 1 8 C3.77326033 10.20291056 6.74480405 11.63216009 10 13 C8.12733197 15.0300807 7.30031002 15.92299743 4.5625 16.625 C0.47513029 18.81822277 -0.449469 22.79017841 -2 27 C-4.29762563 24.91407971 -4.99279411 24.02353924 -5.9375 20.9375 C-6.71197578 17.94346183 -6.71197578 17.94346183 -8.875 16.625 C-11.27040939 15.81188912 -11.27040939 15.81188912 -15 16 C-15.33 15.67 -15.66 15.34 -16 15 C-16 16.65 -16 18.3 -16 20 C-18.17071372 16.74392943 -18.74864987 15.77727887 -18 12 C-15.91885224 10.18952174 -14.06476501 8.81243437 -11.75 7.375 C-10.57782405 6.61244158 -9.40594226 5.84943077 -8.234375 5.0859375 C-7.16703125 4.39757812 -6.0996875 3.70921875 -5 3 C-4.22140625 2.41476563 -3.4428125 1.82953125 -2.640625 1.2265625 C-1 0 -1 0 0 0 Z M-7 7 C-8.98 7.99 -8.98 7.99 -11 9 C-11 9.66 -11 10.32 -11 11 C-9.35 10.34 -7.7 9.68 -6 9 C-6.33 8.34 -6.66 7.68 -7 7 Z " fill="#E9D1AA" transform="translate(264,151)"/>
<path d="M0 0 C3.96 0 7.92 0 12 0 C12.86772029 2.07772471 13.71873619 4.16243177 14.5625 6.25 C15.03816406 7.41015625 15.51382812 8.5703125 16.00390625 9.765625 C16.95770524 12.86266644 17.20983356 14.07321701 16 17 C15.01 15.02 14.02 13.04 13 11 C12.01 11 11.02 11 10 11 C9.67 11.66 9.34 12.32 9 13 C9.33 13.33 9.66 13.66 10 14 C10.33 14.66 10.66 15.32 11 16 C10.0625 18.125 10.0625 18.125 9 20 C8.34 18.35 7.68 16.7 7 15 C6.67 15.66 6.34 16.32 6 17 C5.34 17 4.68 17 4 17 C3.67 18.98 3.34 20.96 3 23 C1.47700477 20.06279492 0.19899698 17.0831351 -1 14 C-1.99 15.485 -1.99 15.485 -3 17 C-3.66 17.66 -4.32 18.32 -5 19 C-3.64583062 12.54165371 -1.95326547 6.30372038 0 0 Z M0 12 C0.33 12.66 0.66 13.32 1 14 C1.33 13.34 1.66 12.68 2 12 C1.34 12 0.68 12 0 12 Z " fill="#2A4591" transform="translate(316,133)"/>
<path d="M0 0 C0.99 0.495 0.99 0.495 2 1 C1.01 1.495 1.01 1.495 0 2 C0 1.34 0 0.68 0 0 Z M-2 1 C0 2 0 2 1.1875 4.125 C2.20156877 7.71324334 1.71075869 10.37513066 1 14 C4.63 14 8.26 14 12 14 C12 14.66 12 15.32 12 16 C8.7 16 5.4 16 2 16 C2 16.66 2 17.32 2 18 C5.96 18 9.92 18 14 18 C14 18.33 14 18.66 14 19 C8.06 19 2.12 19 -4 19 C-3.67 19.66 -3.34 20.32 -3 21 C-2.960008 22.99960012 -2.95653201 25.00047242 -3 27 C-5.64 27 -8.28 27 -11 27 C-10.45484328 19.91296261 -8.39081395 13.67203894 -6 7 C-5.34 7 -4.68 7 -4 7 C-3.34 5.02 -2.68 3.04 -2 1 Z " fill="#0B297A" transform="translate(316,145)"/>
<path d="M0 0 C2.31 0 4.62 0 7 0 C8.59555725 3.49028148 9.32049797 6.15402433 9 10 C8.67 10.33 8.34 10.66 8 11 C7.84379445 12.41327947 7.74943827 13.8335459 7.68359375 15.25390625 C7.64169922 16.10791016 7.59980469 16.96191406 7.55664062 17.84179688 C7.51732422 18.73962891 7.47800781 19.63746094 7.4375 20.5625 C7.39431641 21.46419922 7.35113281 22.36589844 7.30664062 23.29492188 C7.20021858 25.52978485 7.09820012 27.76476308 7 30 C4.69 30 2.38 30 0 30 C0 20.1 0 10.2 0 0 Z " fill="#0C2772" transform="translate(447,142)"/>
<path d="M0 0 C7.7682783 2.66710888 7.7682783 2.66710888 9.84375 6.6796875 C8.85375 6.6796875 7.86375 6.6796875 6.84375 6.6796875 C6.51375 5.6896875 6.18375 4.6996875 5.84375 3.6796875 C2.54375 3.6796875 -0.75625 3.6796875 -4.15625 3.6796875 C-4.15625 4.6696875 -4.15625 5.6596875 -4.15625 6.6796875 C-1.84625 6.6796875 0.46375 6.6796875 2.84375 6.6796875 C2.84375 7.6696875 2.84375 8.6596875 2.84375 9.6796875 C3.50375 10.0096875 4.16375 10.3396875 4.84375 10.6796875 C4.84375 17.9396875 4.84375 25.1996875 4.84375 32.6796875 C7.15375 32.6796875 9.46375 32.6796875 11.84375 32.6796875 C11.84375 26.0796875 11.84375 19.4796875 11.84375 12.6796875 C12.17375 12.6796875 12.50375 12.6796875 12.84375 12.6796875 C12.84375 19.6096875 12.84375 26.5396875 12.84375 33.6796875 C9.87375 33.6796875 6.90375 33.6796875 3.84375 33.6796875 C2.69772278 31.38763306 2.75344597 30.19136515 2.81640625 27.65234375 C2.83477539 26.46415039 2.83477539 26.46415039 2.85351562 25.25195312 C2.88859166 23.58259377 2.92763613 21.91331294 2.97070312 20.24414062 C2.98166016 19.45072266 2.99261719 18.65730469 3.00390625 17.83984375 C3.02074463 17.11418213 3.03758301 16.38852051 3.05493164 15.64086914 C2.96177325 13.35575536 2.96177325 13.35575536 0.84375 10.6796875 C-3.80770592 10.29943975 -3.80770592 10.29943975 -8.15625 11.6796875 C-8.81625 8.7096875 -9.47625 5.7396875 -10.15625 2.6796875 C-12.46625 2.6796875 -14.77625 2.6796875 -17.15625 2.6796875 C-17.15625 12.5796875 -17.15625 22.4796875 -17.15625 32.6796875 C-14.84625 32.6796875 -12.53625 32.6796875 -10.15625 32.6796875 C-10.15625 26.4096875 -10.15625 20.1396875 -10.15625 13.6796875 C-9.82625 13.6796875 -9.49625 13.6796875 -9.15625 13.6796875 C-9.15625 20.2796875 -9.15625 26.8796875 -9.15625 33.6796875 C-12.12625 33.6796875 -15.09625 33.6796875 -18.15625 33.6796875 C-18.15625 23.1196875 -18.15625 12.5596875 -18.15625 1.6796875 C-13.82291667 1.6796875 -9.48958333 1.6796875 -5.15625 1.6796875 C-2.15625 -0.3203125 -2.15625 -0.3203125 0 0 Z " fill="#7F91BD" transform="translate(464.15625,139.3203125)"/>
<path d="M0 0 C1.8125 0.0625 1.8125 0.0625 4 1 C9.77052869 8.0735513 13.16175735 17.14301266 15 26 C14.401875 25.67 13.80375 25.34 13.1875 25 C10.94613529 23.79212012 10.94613529 23.79212012 8 24 C7.67 23.67 7.34 23.34 7 23 C4.81707226 22.76518307 2.62796826 22.58636677 0.4375 22.4375 C-0.76003906 22.35371094 -1.95757812 22.26992187 -3.19140625 22.18359375 C-4.58166016 22.09271484 -4.58166016 22.09271484 -6 22 C-4.875 20.5 -4.875 20.5 -3 19 C0.1875 18.8125 0.1875 18.8125 3 19 C2.7159949 16.93643105 2.42246648 14.8741715 2.125 12.8125 C1.96257812 11.66394531 1.80015625 10.51539063 1.6328125 9.33203125 C1.05939755 6.31275375 0.25240957 3.79424152 -1 1 C-0.67 0.67 -0.34 0.34 0 0 Z " fill="#83B9E6" transform="translate(325,190)"/>
<path d="M0 0 C2.6663043 0.43573845 3.38635231 1.17991927 5.0078125 3.328125 C6.2109375 5.95703125 6.2109375 5.95703125 7.2578125 8.890625 C7.61359375 9.86128906 7.969375 10.83195313 8.3359375 11.83203125 C9.0078125 14.328125 9.0078125 14.328125 8.0078125 16.328125 C6.6878125 14.348125 5.3678125 12.368125 4.0078125 10.328125 C3.0178125 10.658125 2.0278125 10.988125 1.0078125 11.328125 C1.33265625 12.18083984 1.33265625 12.18083984 1.6640625 13.05078125 C3.46763208 18.0523469 4.3467729 22.01774536 4.0078125 27.328125 C0.3778125 27.328125 -3.2521875 27.328125 -6.9921875 27.328125 C-6.1171875 17.578125 -6.1171875 17.578125 -4.9921875 15.328125 C-4.76750919 13.79143635 -4.58421945 12.24844446 -4.4296875 10.703125 C-4.34589844 9.88585937 -4.26210938 9.06859375 -4.17578125 8.2265625 C-4.11519531 7.60007813 -4.05460937 6.97359375 -3.9921875 6.328125 C-2.6721875 5.998125 -1.3521875 5.668125 0.0078125 5.328125 C0.0078125 4.668125 0.0078125 4.008125 0.0078125 3.328125 C-1.6421875 3.658125 -3.2921875 3.988125 -4.9921875 4.328125 C-5.3221875 5.318125 -5.6521875 6.308125 -5.9921875 7.328125 C-6.6521875 7.328125 -7.3121875 7.328125 -7.9921875 7.328125 C-8.3221875 8.648125 -8.6521875 9.968125 -8.9921875 11.328125 C-9.9921875 9.328125 -9.9921875 9.328125 -9.46875 7.41796875 C-9.04722656 6.35255859 -9.04722656 6.35255859 -8.6171875 5.265625 C-8.34132813 4.55277344 -8.06546875 3.83992187 -7.78125 3.10546875 C-6.12835775 -0.61763014 -3.81831387 0.14089719 0 0 Z M-1.9921875 13.328125 C-0.9921875 16.328125 -0.9921875 16.328125 -0.9921875 16.328125 Z M-2.9921875 17.328125 C-4.75681433 20.41622195 -4.9921875 21.56124636 -4.9921875 25.328125 C-2.0221875 25.823125 -2.0221875 25.823125 1.0078125 26.328125 C1.81748688 23.41329722 2.22627243 21.86699283 1.0703125 19.015625 C0.7196875 18.45875 0.3690625 17.901875 0.0078125 17.328125 C-0.9821875 17.328125 -1.9721875 17.328125 -2.9921875 17.328125 Z " fill="#95C2E5" transform="translate(323.9921875,180.671875)"/>
<path d="M0 0 C3.5 0.125 3.5 0.125 4.5 1.125 C4.58651611 2.54070123 4.60704904 3.960595 4.59765625 5.37890625 C4.59443359 6.23291016 4.59121094 7.08691406 4.58789062 7.96679688 C4.57951172 8.86462891 4.57113281 9.76246094 4.5625 10.6875 C4.55798828 11.58919922 4.55347656 12.49089844 4.54882812 13.41992188 C4.53700225 15.65501314 4.5205222 17.88997437 4.5 20.125 C4.17 20.125 3.84 20.125 3.5 20.125 C3.17 14.185 2.84 8.245 2.5 2.125 C0.85 2.785 -0.8 3.445 -2.5 4.125 C-3.24263984 16.71427955 -3.24263984 16.71427955 1.5 28.125 C6.40126952 30.57563476 13.25242023 28.99959663 18.5 28.125 C18.5 29.115 18.5 30.105 18.5 31.125 C20.81 31.125 23.12 31.125 25.5 31.125 C25.5 21.225 25.5 11.325 25.5 1.125 C25.83 1.125 26.16 1.125 26.5 1.125 C26.995 16.47 26.995 16.47 27.5 32.125 C23.77641513 33.98679243 19.34840608 33.39612982 15.25 33.4375 C13.83654297 33.48100586 13.83654297 33.48100586 12.39453125 33.52539062 C6.61824675 33.5780496 2.91071952 33.25491285 -1.5 29.125 C-5.39826304 23.79355202 -4.88122811 18.14015545 -4.75 11.8125 C-4.74484375 10.79865234 -4.7396875 9.78480469 -4.734375 8.74023438 C-4.64248558 0.16580306 -4.64248558 0.16580306 0 0 Z " fill="#A7CCE3" transform="translate(349.5,188.875)"/>
<path d="M0 0 C2.77319878 0.44119071 4.10307668 0.12057699 6.75 -0.5625 C9.225 -0.0675 9.225 -0.0675 11.75 0.4375 C11.75 10.6675 11.75 20.8975 11.75 31.4375 C11.42 31.4375 11.09 31.4375 10.75 31.4375 C10.75 21.5375 10.75 11.6375 10.75 1.4375 C8.44 1.4375 6.13 1.4375 3.75 1.4375 C3.75 2.4275 3.75 3.4175 3.75 4.4375 C0.45 3.7775 -2.85 3.1175 -6.25 2.4375 C-6.25 3.4275 -6.25 4.4175 -6.25 5.4375 C-5.59 5.4375 -4.93 5.4375 -4.25 5.4375 C-4.25 6.0975 -4.25 6.7575 -4.25 7.4375 C-6.56 8.7575 -8.87 10.0775 -11.25 11.4375 C-11.75044283 17.30167715 -11.75044283 17.30167715 -9.25 22.4375 C-8.59 23.0975 -7.93 23.7575 -7.25 24.4375 C-10.21175123 23.82472388 -11.63058783 23.18377478 -14.25 21.4375 C-13.59 15.4975 -12.93 9.5575 -12.25 3.4375 C-12.91 3.4375 -13.57 3.4375 -14.25 3.4375 C-14.58 4.0975 -14.91 4.7575 -15.25 5.4375 C-16.24 5.4375 -17.23 5.4375 -18.25 5.4375 C-17.25 2.4375 -17.25 2.4375 -14.6875 0.75 C-9.5803781 -1.199992 -5.32912598 -0.92234873 0 0 Z " fill="#B2D5EC" transform="translate(424.25,189.5625)"/>
<path d="M0 0 C4 5.18918919 4 5.18918919 4 9 C2.56344146 9.08131463 1.1255517 9.13933559 -0.3125 9.1875 C-1.11300781 9.22230469 -1.91351563 9.25710937 -2.73828125 9.29296875 C-5.53040367 8.93129486 -6.10344033 7.97901879 -8 6 C-11.62535976 5.7496423 -11.62535976 5.7496423 -15 6 C-15.33 6.99 -15.66 7.98 -16 9 C-16.66 9 -17.32 9 -18 9 C-18 7.02 -18 5.04 -18 3 C-15.02148438 3.04882812 -15.02148438 3.04882812 -12.04296875 3.09765625 C-9.79694539 3.08263217 -9.79694539 3.08263217 -7 2 C-6.67 0.68 -6.34 -0.64 -6 -2 C-9.63 -2 -13.26 -2 -17 -2 C-17.66 -0.68 -18.32 0.64 -19 2 C-22.125 3.75 -22.125 3.75 -25 5 C-24.05439197 1.81931844 -23.36909169 0.27931263 -20.6875 -1.75 C-13.84321391 -4.93338888 -6.05321638 -4.87620209 0 0 Z " fill="#1C3B86" transform="translate(404,144)"/>
<path d="M0 0 C0 0.33 0 0.66 0 1 C-2.31 1.33 -4.62 1.66 -7 2 C-6.01 2.66 -5.02 3.32 -4 4 C-4 4.66 -4 5.32 -4 6 C-1.525 6.495 -1.525 6.495 1 7 C0.67 8.98 0.34 10.96 0 13 C-4.62 13 -9.24 13 -14 13 C-13.67 10.69 -13.34 8.38 -13 6 C-12.34 6 -11.68 6 -11 6 C-11 5.01 -11 4.02 -11 3 C-12.94999129 3.19471111 -12.94999129 3.19471111 -15 4 C-15.33 4.66 -15.66 5.32 -16 6 C-16.33 6.66 -16.66 7.32 -17 8 C-18.32594105 8.36162029 -19.65938457 8.69728039 -21 9 C-21.33 9.99 -21.66 10.98 -22 12 C-22 10.02 -22 8.04 -22 6 C-21.34 6 -20.68 6 -20 6 C-19.67 5.01 -19.34 4.02 -19 3 C-12.59661524 -1.73901293 -7.42008486 -2.81389692 0 0 Z M-12 9 C-11.67 9.99 -11.34 10.98 -11 12 C-8.36 12 -5.72 12 -3 12 C-3 10.68 -3 9.36 -3 8 C-6.77897651 6.9502843 -8.64919071 6.89023119 -12 9 Z " fill="#51679D" transform="translate(433,141)"/>
<path d="M0 0 C3.63 0 7.26 0 11 0 C10.67 1.32 10.34 2.64 10 4 C9.34 4 8.68 4 8 4 C7.67 4.66 7.34 5.32 7 6 C4.36 5.67 1.72 5.34 -1 5 C-1.33 9.95 -1.66 14.9 -2 20 C-2.66 19.67 -3.32 19.34 -4 19 C-4.33 19.66 -4.66 20.32 -5 21 C-5.66 21 -6.32 21 -7 21 C-7.75784766 16.29370237 -8.33005861 11.76691206 -8 7 C-6.05245198 4.36323928 -3.8976368 3.38760072 -1 2 C-0.67 1.34 -0.34 0.68 0 0 Z " fill="#07287E" transform="translate(387,142)"/>
<path d="M0 0 C-0.08378906 1.28777344 -0.16757812 2.57554687 -0.25390625 3.90234375 C-0.35704621 5.58071227 -0.45989584 7.25909864 -0.5625 8.9375 C-0.61857422 9.78763672 -0.67464844 10.63777344 -0.73242188 11.51367188 C-0.80493164 12.72700195 -0.80493164 12.72700195 -0.87890625 13.96484375 C-0.9260376 14.7137085 -0.97316895 15.46257324 -1.02172852 16.23413086 C-1.2052254 18.02755899 -1.2052254 18.02755899 0 19 C0.04063832 20.66617115 0.042721 22.33388095 0 24 C-1.890625 23.7109375 -1.890625 23.7109375 -4 23 C-7.12364906 16.97581966 -8.06780634 10.74183614 -7 4 C-4.8904477 0.14327248 -4.63354986 0 0 0 Z " fill="#80B9E6" transform="translate(412,193)"/>
<path d="M0 0 C3.3 0 6.6 0 10 0 C8.2 7.2 8.2 7.2 4 10 C1.37109375 10.265625 1.37109375 10.265625 -1.5625 10.25 C-2.53316406 10.25515625 -3.50382812 10.2603125 -4.50390625 10.265625 C-7 10 -7 10 -9 8 C-8.67 7.01 -8.34 6.02 -8 5 C-5.66666667 4.33333333 -3.33333333 3.66666667 -1 3 C-0.67 2.01 -0.34 1.02 0 0 Z " fill="#4C63A1" transform="translate(431,162)"/>
<path d="M0 0 C0.99 0.495 0.99 0.495 2 1 C2 2.65 2 4.3 2 6 C3.32 6 4.64 6 6 6 C6 4.02 6 2.04 6 0 C6.33 0 6.66 0 7 0 C7.33 5.28 7.66 10.56 8 16 C9.98 16.66 11.96 17.32 14 18 C14 19.98 14 21.96 14 24 C11.69 24 9.38 24 7 24 C7 23.67 7 23.34 7 23 C8.65 23 10.3 23 12 23 C12 21.68 12 20.36 12 19 C10.081875 18.690625 10.081875 18.690625 8.125 18.375 C7.04605469 18.20097656 7.04605469 18.20097656 5.9453125 18.0234375 C5.30335938 18.01570313 4.66140625 18.00796875 4 18 C3.34 18.66 2.68 19.32 2 20 C1.67 18.35 1.34 16.7 1 15 C0.67 15 0.34 15 0 15 C0 10.05 0 5.1 0 0 Z " fill="#0C2976" transform="translate(485,148)"/>
<path d="M0 0 C0.99 0.33 1.98 0.66 3 1 C2.67515625 1.88751953 2.67515625 1.88751953 2.34375 2.79296875 C0.12969072 8.74432452 0.12969072 8.74432452 0 15 C0.99 16.485 0.99 16.485 2 18 C0.35 18.66 -1.3 19.32 -3 20 C-7 16 -7 16 -7.1953125 12.9609375 C-7.17210937 11.77757812 -7.14890625 10.59421875 -7.125 9.375 C-7.10695313 8.18648437 -7.08890625 6.99796875 -7.0703125 5.7734375 C-7.04710937 4.85820312 -7.02390625 3.94296875 -7 3 C-5.1875 1.9375 -5.1875 1.9375 -3 1 C-2.01 1.33 -1.02 1.66 0 2 C0 1.34 0 0.68 0 0 Z " fill="#062780" transform="translate(352,147)"/>
<path d="M0 0 C10.18747327 -1.03852883 10.18747327 -1.03852883 14.16796875 1.2421875 C16.70386413 3.85638844 17.9365306 5.78446476 18.12890625 9.46875 C17.89869535 11.70710827 17.54417242 13.81836331 17 16 C16.01 15.67 15.02 15.34 14 15 C14 14.34 14 13.68 14 13 C12.68 12.67 11.36 12.34 10 12 C10 10.35 10 8.7 10 7 C8.68 6.34 7.36 5.68 6 5 C6 4.34 6 3.68 6 3 C5.38125 2.87625 4.7625 2.7525 4.125 2.625 C2 2 2 2 0 0 Z " fill="#0D2B7F" transform="translate(423,142)"/>
<path d="M0 0 C1.32 0 2.64 0 4 0 C4.04898437 0.96421875 4.09796875 1.9284375 4.1484375 2.921875 C4.22320312 4.18515625 4.29796875 5.4484375 4.375 6.75 C4.44460938 8.00296875 4.51421875 9.2559375 4.5859375 10.546875 C4.95323304 13.60998121 5.39711286 15.41974266 7 18 C7.66 17.67 8.32 17.34 9 17 C11.3494053 17.60760482 13.68529088 18.27129528 16 19 C16 20.32 16 21.64 16 23 C16.66 23.33 17.32 23.66 18 24 C18 22.02 18 20.04 18 18 C16.35 18 14.7 18 13 18 C12.67 17.34 12.34 16.68 12 16 C14.31 16.33 16.62 16.66 19 17 C19 19.64 19 22.28 19 25 C9.21414538 25.57563851 9.21414538 25.57563851 5 22 C2.08646806 17.74893917 2.58266364 12.62235032 2.43359375 7.66796875 C2.40517456 3.37316497 2.40517456 3.37316497 0 0 Z " fill="#6E83BB" transform="translate(481,148)"/>
<path d="M0 0 C0.33 0.66 0.66 1.32 1 2 C0.34 2 -0.32 2 -1 2 C-1 11.9 -1 21.8 -1 32 C1.31 32 3.62 32 6 32 C5.98428955 31.40985107 5.9685791 30.81970215 5.95239258 30.21166992 C5.89002061 27.53704414 5.85100343 24.86257136 5.8125 22.1875 C5.78736328 21.25873047 5.76222656 20.32996094 5.73632812 19.37304688 C5.72182617 18.0340332 5.72182617 18.0340332 5.70703125 16.66796875 C5.6913208 15.84578857 5.67561035 15.0236084 5.65942383 14.17651367 C6.08373325 11.46488754 6.81925715 10.62328353 9 9 C12.1875 8.3125 12.1875 8.3125 15 8 C15 6.02 15 4.04 15 2 C13.35 2 11.7 2 10 2 C10.66 1.34 11.32 0.68 12 0 C14.625 0.375 14.625 0.375 17 1 C17 3.64 17 6.28 17 9 C16.43410156 9.19335938 15.86820312 9.38671875 15.28515625 9.5859375 C14.55167969 9.84632813 13.81820313 10.10671875 13.0625 10.375 C12.33160156 10.63023437 11.60070312 10.88546875 10.84765625 11.1484375 C8.81317884 11.85271413 8.81317884 11.85271413 8 14 C7.84932786 15.4465242 7.75138964 16.8987934 7.68359375 18.3515625 C7.64169922 19.20234375 7.59980469 20.053125 7.55664062 20.9296875 C7.51732422 21.81914062 7.47800781 22.70859375 7.4375 23.625 C7.39431641 24.5221875 7.35113281 25.419375 7.30664062 26.34375 C7.20043285 28.56231239 7.09970041 30.78113565 7 33 C4.03 33 1.06 33 -2 33 C-2.81633513 28.80563163 -3.06893987 24.99176143 -2.87890625 20.7265625 C-2.83056641 19.57285156 -2.78222656 18.41914063 -2.73242188 17.23046875 C-2.67634766 16.04066406 -2.62027344 14.85085937 -2.5625 13.625 C-2.51029297 12.41199219 -2.45808594 11.19898438 -2.40429688 9.94921875 C-2.27509608 6.96585487 -2.14014959 3.98286627 -2 1 C-1.34 0.67 -0.68 0.34 0 0 Z " fill="#CFE6F4" transform="translate(384,189)"/>
<path d="M0 0 C2.18975773 3.28463659 2.99806563 6.20696275 4 10 C0.7 10 -2.6 10 -6 10 C-6.66 8.02 -7.32 6.04 -8 4 C-12.95 3.67 -17.9 3.34 -23 3 C-23.33 5.31 -23.66 7.62 -24 10 C-27.3 10 -30.6 10 -34 10 C-34 8.68 -34 7.36 -34 6 C-33.67 6.99 -33.34 7.98 -33 9 C-30.36 9 -27.72 9 -25 9 C-25.33 6.36 -25.66 3.72 -26 1 C-19.4 1 -12.8 1 -6 1 C-5.67 1.99 -5.34 2.98 -5 4 C-5.33 4.66 -5.66 5.32 -6 6 C-5.34 6.33 -4.68 6.66 -4 7 C-4.33 7.66 -4.66 8.32 -5 9 C-3.35 8.67 -1.7 8.34 0 8 C0 5.36 0 2.72 0 0 Z " fill="#8392B7" transform="translate(338,163)"/>
<path d="M0 0 C0 0.99 0 1.98 0 3 C2.475 3.99 2.475 3.99 5 5 C5 6.65 5 8.3 5 10 C5.61875 10.309375 6.2375 10.61875 6.875 10.9375 C8.25 11.625 9.625 12.3125 11 13 C11 14.65 11 16.3 11 18 C8.859375 18.4921875 8.859375 18.4921875 6 18 C3.69979814 15.6352918 2.01184544 12.90311207 0.25 10.125 C-0.24371094 9.37863281 -0.73742187 8.63226563 -1.24609375 7.86328125 C-4.67611607 2.64776786 -4.67611607 2.64776786 -6 0 C-3.50907189 -1.24546405 -2.58919267 -0.7767578 0 0 Z " fill="#062D82" transform="translate(277,226)"/>
<path d="M0 0 C0.99 0.33 1.98 0.66 3 1 C3 1.66 3 2.32 3 3 C3.81210937 3.31324219 3.81210937 3.31324219 4.640625 3.6328125 C7.89853604 5.52067486 10.23805335 8.11908587 12.75 10.875 C13.27424561 11.44782715 13.79849121 12.0206543 14.33862305 12.61083984 C19.11216855 17.93751162 23.78797046 23.57594092 27 30 C26.67 30.99 26.34 31.98 26 33 C25.9175 32.38125 25.835 31.7625 25.75 31.125 C25.19416524 28.83911206 25.19416524 28.83911206 23.0625 27.8125 C22.381875 27.544375 21.70125 27.27625 21 27 C20.34 26.67 19.68 26.34 19 26 C19 24.35 19 22.7 19 21 C17.35 20.34 15.7 19.68 14 19 C14 18.01 14 17.02 14 16 C13.401875 15.7525 12.80375 15.505 12.1875 15.25 C9.68373081 13.81927475 8.51927612 12.4308418 7 10 C7 9.34 7 8.68 7 8 C6.401875 7.773125 5.80375 7.54625 5.1875 7.3125 C2.42262384 5.6535743 1.45450865 3.83629187 0 1 C0 0.67 0 0.34 0 0 Z " fill="#5B6DA2" transform="translate(263,210)"/>
<path d="M0 0 C0.33 0 0.66 0 1 0 C1 8.91 1 17.82 1 27 C2.65 27 4.3 27 6 27 C5.96519531 25.73542969 5.93039062 24.47085938 5.89453125 23.16796875 C5.86639323 21.50782577 5.83909309 19.84766844 5.8125 18.1875 C5.78736328 17.35412109 5.76222656 16.52074219 5.73632812 15.66210938 C5.72182617 14.45844727 5.72182617 14.45844727 5.70703125 13.23046875 C5.6913208 12.49207764 5.67561035 11.75368652 5.65942383 10.99291992 C6.09597642 8.43838315 6.98942796 7.58249319 9 6 C10.32860925 5.64830932 11.66158328 5.31229724 13 5 C13.33 4.34 13.66 3.68 14 3 C12.02 3.66 10.04 4.32 8 5 C8.33 4.01 8.66 3.02 9 2 C9.66 2 10.32 2 11 2 C11 1.34 11 0.68 11 0 C12.65 0 14.3 0 16 0 C16 1.98 16 3.96 16 6 C14.2984375 6.7115625 14.2984375 6.7115625 12.5625 7.4375 C9.24259834 8.63622083 9.24259834 8.63622083 8 10 C7.84344973 11.48638992 7.74933057 12.97949127 7.68359375 14.47265625 C7.64169922 15.37177734 7.59980469 16.27089844 7.55664062 17.19726562 C7.49766602 18.61555664 7.49766602 18.61555664 7.4375 20.0625 C7.37272461 21.4865918 7.37272461 21.4865918 7.30664062 22.93945312 C7.20020724 25.29281353 7.09818992 27.64628354 7 30 C4.69 30 2.38 30 0 30 C0 20.1 0 10.2 0 0 Z " fill="#8AB6D8" transform="translate(383,191)"/>
<path d="M0 0 C0.33 0 0.66 0 1 0 C1 2.64 1 5.28 1 8 C0.01 8.33 -0.98 8.66 -2 9 C-2 10.32 -2 11.64 -2 13 C-0.02 13 1.96 13 4 13 C4.12375 12.030625 4.2475 11.06125 4.375 10.0625 C4.58125 9.051875 4.7875 8.04125 5 7 C8.18824568 5.40587716 11.62896662 5.89825265 15.125 5.9375 C15.87910156 5.94201172 16.63320313 5.94652344 17.41015625 5.95117188 C19.27347127 5.96296501 21.13674555 5.98090058 23 6 C23.66 8.64 24.32 11.28 25 14 C27.31 14 29.62 14 32 14 C32.33 12.68 32.66 11.36 33 10 C33.5625 11.9375 33.5625 11.9375 34 14 C33 15 33 15 30.93359375 15.09765625 C30.10988281 15.08605469 29.28617187 15.07445312 28.4375 15.0625 C27.61121094 15.05347656 26.78492188 15.04445312 25.93359375 15.03515625 C25.29550781 15.02355469 24.65742188 15.01195312 24 15 C23.01 12.69 22.02 10.38 21 8 C16.38 8 11.76 8 7 8 C6.67 9.65 6.34 11.3 6 13 C5.67 13.66 5.34 14.32 5 15 C2.03 15 -0.94 15 -4 15 C-3.43179252 9.54520815 -2.05362055 5.08940744 0 0 Z " fill="#C3DEED" transform="translate(308,207)"/>
<path d="M0 0 C0.97591583 3.38317487 0.85856655 5.5657338 0 9 C-0.66 9 -1.32 9 -2 9 C-1.67 9.66 -1.34 10.32 -1 11 C-0.34 10.67 0.32 10.34 1 10 C0.979375 10.928125 0.95875 11.85625 0.9375 12.8125 C0.84230396 16.02286011 0.84230396 16.02286011 2 19 C1.44140625 21.04296875 1.44140625 21.04296875 0.5625 23.1875 C0.27503906 23.90292969 -0.01242187 24.61835938 -0.30859375 25.35546875 C-0.53675781 25.89816406 -0.76492188 26.44085938 -1 27 C-2.98 27 -4.96 27 -7 27 C-7 25.68 -7 24.36 -7 23 C-6.34 22.67 -5.68 22.34 -5 22 C-4.68114983 19.51850832 -4.68114983 19.51850832 -4.625 16.5625 C-4.23485333 10.4158496 -2.63053249 5.53023575 0 0 Z " fill="#96C7EA" transform="translate(313,193)"/>
<path d="M0 0 C0.33 0 0.66 0 1 0 C1 1.98 1 3.96 1 6 C-5.93 6 -12.86 6 -20 6 C-20.33 4.35 -20.66 2.7 -21 1 C-18.37493198 0.97309156 -15.75013827 0.95320596 -13.125 0.9375 C-12.37863281 0.92912109 -11.63226563 0.92074219 -10.86328125 0.91210938 C-5.2265625 0.88671875 -5.2265625 0.88671875 -3 2 C-3 2.66 -3 3.32 -3 4 C-2.34 4 -1.68 4 -1 4 C-0.67 2.68 -0.34 1.36 0 0 Z " fill="#0D2872" transform="translate(440,153)"/>
<path d="M0 0 C2.31 0 4.62 0 7 0 C6.67 0.66 6.34 1.32 6 2 C5.34 2 4.68 2 4 2 C4 2.99 4 3.98 4 5 C3.01 5.495 3.01 5.495 2 6 C2 6.99 2 7.98 2 9 C-0.32595946 10.16297973 -1.78723231 10.16600691 -4.375 10.1875 C-5.53128906 10.20876953 -5.53128906 10.20876953 -6.7109375 10.23046875 C-9.21834888 9.97801607 -10.83261902 9.25193467 -13 8 C-13 7.34 -13 6.68 -13 6 C-10.13011773 4.56505886 -7.27074926 4.72378527 -4.09375 4.57421875 C-1.80464706 4.20024451 -1.80464706 4.20024451 -0.71875 1.95703125 C-0.4815625 1.31121094 -0.244375 0.66539062 0 0 Z " fill="#0A287D" transform="translate(366,162)"/>
<path d="M0 0 C0.66 0.33 1.32 0.66 2 1 C1.67 1.66 1.34 2.32 1 3 C1.99 2.34 2.98 1.68 4 1 C4.99 1 5.98 1 7 1 C6.79375 1.70769531 6.5875 2.41539062 6.375 3.14453125 C5.918143 6.62330698 6.66506702 8.46873068 8 11.6875 C8.71984661 13.43739028 9.39904467 15.20580162 10 17 C9.67 17.66 9.34 18.32 9 19 C8.75765625 18.37351563 8.5153125 17.74703125 8.265625 17.1015625 C7.93046875 16.28429687 7.5953125 15.46703125 7.25 14.625 C6.92515625 13.81289062 6.6003125 13.00078125 6.265625 12.1640625 C4.76649319 9.60073219 3.78902682 8.94000534 1 8 C-0.32 8 -1.64 8 -3 8 C-3.33 7.67 -3.66 7.34 -4 7 C-4 8.65 -4 10.3 -4 12 C-6.15827162 8.76259258 -6.73320331 7.75766697 -6 4 C-3 1.6875 -3 1.6875 0 0 Z " fill="#EBCA9A" transform="translate(252,159)"/>
<path d="M0 0 C0.33 0 0.66 0 1 0 C1 4.33333333 1 8.66666667 1 13 C1.66 13.33 2.32 13.66 3 14 C3 15.98 3 17.96 3 20 C0.36 20 -2.28 20 -5 20 C-4.45484328 12.91296261 -2.39081395 6.67203894 0 0 Z " fill="#0D2B77" transform="translate(310,152)"/>
<path d="M0 0 C0.66 0 1.32 0 2 0 C1.90234375 1.92057292 1.8046875 3.84114583 1.70703125 5.76171875 C1.85985707 8.14611402 1.85985707 8.14611402 3.5 10.375 C5.3378827 13.59129473 5.30855797 15.64040819 5.1875 19.3125 C5.16042969 20.38113281 5.13335937 21.44976562 5.10546875 22.55078125 C5.07066406 23.35902344 5.03585937 24.16726562 5 25 C3.35 25 1.7 25 0 25 C0 16.75 0 8.5 0 0 Z " fill="#05287F" transform="translate(448,146)"/>
<path d="M0 0 C2.48919424 0.97202006 3.7448997 1.5326334 5.046875 3.91796875 C6.56239529 8.80973145 7.32692397 12.87819117 7 18 C3.37 18 -0.26 18 -4 18 C-3.53856207 11.35529381 -2.60822848 6.12366686 0 0 Z M1 4 C2 7 2 7 2 7 Z M0 8 C-1.76462683 11.08809695 -2 12.23312136 -2 16 C0.97 16.495 0.97 16.495 4 17 C4.80967438 14.08517222 5.21845993 12.53886783 4.0625 9.6875 C3.711875 9.130625 3.36125 8.57375 3 8 C2.01 8 1.02 8 0 8 Z " fill="#ACCFE8" transform="translate(321,190)"/>
<path d="M0 0 C2.31 0 4.62 0 7 0 C7 9.9 7 19.8 7 30 C4.69 30 2.38 30 0 30 C0.495 28.515 0.495 28.515 1 27 C1.99 27.33 2.98 27.66 4 28 C4.33 19.09 4.66 10.18 5 1 C3.35 1.66 1.7 2.32 0 3 C0 2.01 0 1.02 0 0 Z " fill="#8CB6D5" transform="translate(428,191)"/>
<path d="M0 0 C1.6256807 0.30893932 3.25052748 0.6222695 4.875 0.9375 C5.77992188 1.11152344 6.68484375 1.28554687 7.6171875 1.46484375 C10 2 10 2 12 3 C12.33 2.34 12.66 1.68 13 1 C14.32 2.65 15.64 4.3 17 6 C11.4373852 8.66038099 6.06732052 9.96232949 0 11 C0.33 10.34 0.66 9.68 1 9 C1.99 9 2.98 9 4 9 C4 8.34 4 7.68 4 7 C5.5 5.375 5.5 5.375 7 4 C5.35 4 3.7 4 2 4 C1.34 2.68 0.68 1.36 0 0 Z " fill="#EDCF9F" transform="translate(253,177)"/>
<path d="M0 0 C1 3 1 3 0.5625 5.125 C-1 7 -1 7 -4.6875 7.875 C-8.87286977 8.21931744 -12.06647413 7.39312375 -16 6 C-14.57315804 3.14631608 -12.9881528 3.0393575 -10 2 C-3.55555556 0 -3.55555556 0 0 0 Z " fill="#E99D3C" transform="translate(239,177)"/>
<path d="M0 0 C1.32 0 2.64 0 4 0 C3.6875 1.9375 3.6875 1.9375 3 4 C2.01 4.33 1.02 4.66 0 5 C-0.33 6.32 -0.66 7.64 -1 9 C-4.63 9 -8.26 9 -12 9 C-12.33 7.35 -12.66 5.7 -13 4 C-10.03 4.33 -7.06 4.66 -4 5 C-4 4.34 -4 3.68 -4 3 C-3.01 2.67 -2.02 2.34 -1 2 C-0.67 1.34 -0.34 0.68 0 0 Z " fill="#07287F" transform="translate(400,163)"/>
<path d="M0 0 C1.5 1.375 1.5 1.375 3 3 C3 3.66 3 4.32 3 5 C4.32 5.66 5.64 6.32 7 7 C5.68 7 4.36 7 3 7 C2.87625 8.258125 2.7525 9.51625 2.625 10.8125 C2.30131941 14.10325263 1.93395001 15.09907498 0 18 C-4.43049327 7.4690583 -4.43049327 7.4690583 -3.375 3.8671875 C-2.25 2.25 -2.25 2.25 0 0 Z " fill="#E89F3E" transform="translate(261,158)"/>
<path d="M0 0 C3.53647504 1.67517239 4.7911563 2.49280817 6.3125 6.1875 C6.6528125 7.5796875 6.6528125 7.5796875 7 9 C5.56344146 9.08131463 4.1255517 9.13933559 2.6875 9.1875 C1.48673828 9.23970703 1.48673828 9.23970703 0.26171875 9.29296875 C-2.53324585 8.9309267 -3.11855926 8.0041434 -5 6 C-8.61023099 5.26958147 -8.61023099 5.26958147 -12 5 C-12 4.67 -12 4.34 -12 4 C-10.7625 3.67 -9.525 3.34 -8.25 3 C-7.20585937 2.7215625 -7.20585937 2.7215625 -6.140625 2.4375 C-4 2 -4 2 0 2 C0 1.34 0 0.68 0 0 Z " fill="#35508E" transform="translate(368,144)"/>
<path d="M0 0 C2.25878057 3.38817085 3.18894613 6.01231845 4 10 C3.125 13.4375 3.125 13.4375 2 16 C1.01 16 0.02 16 -1 16 C-1.33 15.01 -1.66 14.02 -2 13 C-2.33 12.67 -2.66 12.34 -3 12 C-3.04080783 10.00041636 -3.04254356 7.99954746 -3 6 C-3.66 5.67 -4.32 5.34 -5 5 C-4.67 3.68 -4.34 2.36 -4 1 C-2.02 1.495 -2.02 1.495 0 2 C0 1.34 0 0.68 0 0 Z " fill="#09297D" transform="translate(329,142)"/>
<path d="M0 0 C2.05078125 0.03255208 4.1015625 0.06510417 6.15234375 0.09765625 C6.15234375 2.73765625 6.15234375 5.37765625 6.15234375 8.09765625 C8.46234375 8.09765625 10.77234375 8.09765625 13.15234375 8.09765625 C13.15234375 10.73765625 13.15234375 13.37765625 13.15234375 16.09765625 C10.77734375 16.72265625 10.77734375 16.72265625 8.15234375 17.09765625 C7.49234375 16.43765625 6.83234375 15.77765625 6.15234375 15.09765625 C8.13234375 15.09765625 10.11234375 15.09765625 12.15234375 15.09765625 C12.15234375 13.11765625 12.15234375 11.13765625 12.15234375 9.09765625 C9.51234375 9.09765625 6.87234375 9.09765625 4.15234375 9.09765625 C4.15234375 6.78765625 4.15234375 4.47765625 4.15234375 2.09765625 C2.50234375 2.09765625 0.85234375 2.09765625 -0.84765625 2.09765625 C-1.17765625 4.40765625 -1.50765625 6.71765625 -1.84765625 9.09765625 C-3.16765625 9.09765625 -4.48765625 9.09765625 -5.84765625 9.09765625 C-5.84765625 11.07765625 -5.84765625 13.05765625 -5.84765625 15.09765625 C-6.17765625 15.09765625 -6.50765625 15.09765625 -6.84765625 15.09765625 C-6.84765625 12.78765625 -6.84765625 10.47765625 -6.84765625 8.09765625 C-5.52765625 8.09765625 -4.20765625 8.09765625 -2.84765625 8.09765625 C-2.86828125 6.96328125 -2.88890625 5.82890625 -2.91015625 4.66015625 C-2.83102423 0.1496313 -2.83102423 0.1496313 0 0 Z " fill="#8FA0C2" transform="translate(486.84765625,132.90234375)"/>
<path d="M0 0 C1.23556641 0.01740234 1.23556641 0.01740234 2.49609375 0.03515625 C3.32238281 0.04417969 4.14867187 0.05320313 5 0.0625 C5.63808594 0.07410156 6.27617187 0.08570313 6.93359375 0.09765625 C6.93359375 2.07765625 6.93359375 4.05765625 6.93359375 6.09765625 C4.95359375 6.09765625 2.97359375 6.09765625 0.93359375 6.09765625 C0.93359375 11.37765625 0.93359375 16.65765625 0.93359375 22.09765625 C0.60359375 22.09765625 0.27359375 22.09765625 -0.06640625 22.09765625 C-0.06640625 16.15765625 -0.06640625 10.21765625 -0.06640625 4.09765625 C-1.05640625 4.42765625 -2.04640625 4.75765625 -3.06640625 5.09765625 C-3.06640625 0.14491523 -3.06640625 0.14491523 0 0 Z " fill="#1C377D" transform="translate(492.06640625,141.90234375)"/>
<path d="M0 0 C3.96 0 7.92 0 12 0 C12.66 2.31 13.32 4.62 14 7 C13.01 6.67 12.02 6.34 11 6 C11 4.35 11 2.7 11 1 C8.03 1 5.06 1 2 1 C2.185625 2.0725 2.37125 3.145 2.5625 4.25 C2.9304568 7.40391546 3.04465343 9.09818492 2 12 C1.34 12 0.68 12 0 12 C-0.33 12.66 -0.66 13.32 -1 14 C-3 17 -3 17 -5 19 C-3.64583062 12.54165371 -1.95326547 6.30372038 0 0 Z " fill="#7385B3" transform="translate(316,133)"/>
<path d="M0 0 C2.08163365 3.12245047 3.32575613 6.07034881 4.6875 9.5625 C5.14511719 10.71878906 5.60273438 11.87507812 6.07421875 13.06640625 C7 16 7 16 6 18 C5.01 17.34 4.02 16.68 3 16 C2.01 16 1.02 16 0 16 C-2.1875 14.5 -2.1875 14.5 -4 13 C-3.34 13 -2.68 13 -2 13 C-1.67 12.01 -1.34 11.02 -1 10 C-0.34 10 0.32 10 1 10 C1 8.68 1 7.36 1 6 C0.34 6 -0.32 6 -1 6 C-0.67 4.02 -0.34 2.04 0 0 Z " fill="#9DC8E8" transform="translate(333,198)"/>
<path d="M0 0 C1.1446875 0.495 1.1446875 0.495 2.3125 1 C4.99069135 2.17436686 4.99069135 2.17436686 8 2 C8.99 2 9.98 2 11 2 C10.67 2.99 10.34 3.98 10 5 C7.38502661 6.23867161 4.74488051 7.08503983 2 8 C2 9.98 2 11.96 2 14 C1.34 14 0.68 14 0 14 C-1.86987216 10.26025568 -1.30641834 5.53209172 -0.5 1.5 C-0.335 1.005 -0.17 0.51 0 0 Z " fill="#7FBBEA" transform="translate(386,192)"/>
<path d="M0 0 C3.3 0 6.6 0 10 0 C9.55530671 5.03985731 7.28656638 7.37634988 4 11 C3.01 10.67 2.02 10.34 1 10 C2 7 2 7 5 5 C5.33 4.01 5.66 3.02 6 2 C4.68 2 3.36 2 2 2 C1.67 2.99 1.34 3.98 1 5 C-2.3 5 -5.6 5 -9 5 C-7.68 4.34 -6.36 3.68 -5 3 C-4.01 3.33 -3.02 3.66 -2 4 C-2 3.34 -2 2.68 -2 2 C-1.34 2 -0.68 2 0 2 C0 1.34 0 0.68 0 0 Z " fill="#8290B8" transform="translate(398,161)"/>
<path d="M0 0 C2 1.8125 2 1.8125 4 4 C4 4.99 4 5.98 4 7 C2.56344146 7.08131463 1.1255517 7.13933559 -0.3125 7.1875 C-1.51326172 7.23970703 -1.51326172 7.23970703 -2.73828125 7.29296875 C-5.53040367 6.93129486 -6.10344033 5.97901879 -8 4 C-11.62535976 3.7496423 -11.62535976 3.7496423 -15 4 C-15.33 4.99 -15.66 5.98 -16 7 C-16.66 7 -17.32 7 -18 7 C-18 5.02 -18 3.04 -18 1 C-14.04 1 -10.08 1 -6 1 C-5.67 2.32 -5.34 3.64 -5 5 C-2.69 5 -0.38 5 2 5 C1.34 4.67 0.68 4.34 0 4 C0 2.68 0 1.36 0 0 Z " fill="#6F82AB" transform="translate(404,146)"/>
<path d="M0 0 C0.33 0 0.66 0 1 0 C1.33 10.23 1.66 20.46 2 31 C-0.94386623 32.47193312 -3.37390036 31.84936173 -6.625 31.5625 C-7.81351562 31.46066406 -9.00203125 31.35882813 -10.2265625 31.25390625 C-11.14179688 31.17011719 -12.05703125 31.08632812 -13 31 C-11.68 30.34 -10.36 29.68 -9 29 C-9 28.34 -9 27.68 -9 27 C-8.34 27 -7.68 27 -7 27 C-7 27.99 -7 28.98 -7 30 C-4.69 30 -2.38 30 0 30 C0 20.1 0 10.2 0 0 Z " fill="#E4F7FF" transform="translate(375,190)"/>
<path d="M0 0 C3.5 0.125 3.5 0.125 4.5 1.125 C4.58651611 2.54070123 4.60704904 3.960595 4.59765625 5.37890625 C4.59443359 6.23291016 4.59121094 7.08691406 4.58789062 7.96679688 C4.57951172 8.86462891 4.57113281 9.76246094 4.5625 10.6875 C4.55798828 11.58919922 4.55347656 12.49089844 4.54882812 13.41992188 C4.53700225 15.65501314 4.5205222 17.88997437 4.5 20.125 C4.17 20.125 3.84 20.125 3.5 20.125 C3.17 14.185 2.84 8.245 2.5 2.125 C0.85 2.785 -0.8 3.445 -2.5 4.125 C-2.83 10.395 -3.16 16.665 -3.5 23.125 C-3.83 23.125 -4.16 23.125 -4.5 23.125 C-4.52887512 19.47918313 -4.54675585 15.83339537 -4.5625 12.1875 C-4.57087891 11.14658203 -4.57925781 10.10566406 -4.58789062 9.03320312 C-4.59272461 7.54916992 -4.59272461 7.54916992 -4.59765625 6.03515625 C-4.60289307 5.11871338 -4.60812988 4.20227051 -4.61352539 3.25805664 C-4.42110116 -0.35744977 -3.75731734 0.13418991 0 0 Z " fill="#D2EEF8" transform="translate(349.5,188.875)"/>
<path d="M0 0 C2.52395149 0.84131716 4.64847037 1.78860595 7 3 C7.7425 3.37125 8.485 3.7425 9.25 4.125 C10.11625 4.558125 10.11625 4.558125 11 5 C10.01 5.33 9.02 5.66 8 6 C10.475 6.495 10.475 6.495 13 7 C13 7.66 13 8.32 13 9 C8.41105799 8.32930848 4.07452793 7.23877704 -0.375 5.9375 C-1.62023437 5.57527344 -2.86546875 5.21304688 -4.1484375 4.83984375 C-5.08945313 4.56269531 -6.03046875 4.28554687 -7 4 C-3.25 2.875 -3.25 2.875 -1 4 C-0.67 2.68 -0.34 1.36 0 0 Z " fill="#EFF6F3" transform="translate(217,181)"/>
<path d="M0 0 C0.94875 0.04125 1.8975 0.0825 2.875 0.125 C2.875 0.455 2.875 0.785 2.875 1.125 C1.946875 1.393125 1.01875 1.66125 0.0625 1.9375 C-2.88740366 3.03648371 -4.18115186 3.74918561 -6.125 6.125 C-4.145 6.125 -2.165 6.125 -0.125 6.125 C-1.115 7.61 -1.115 7.61 -2.125 9.125 C-4.21875 9.48828125 -4.21875 9.48828125 -6.625 9.4375 C-7.4190625 9.43363281 -8.213125 9.42976562 -9.03125 9.42578125 C-11.125 9.125 -11.125 9.125 -13.125 7.125 C-12.795 6.135 -12.465 5.145 -12.125 4.125 C-9.80652126 3.4083793 -7.47180297 2.74257973 -5.125 2.125 C-3.125 0.125 -3.125 0.125 0 0 Z " fill="#0E2976" transform="translate(435.125,162.875)"/>
<path d="M0 0 C3.58210556 0.30703762 4.8135297 0.80862258 7.375 3.4375 C9.84624861 6.25582164 9.84624861 6.25582164 13.5 7 C17.57838312 8.16525232 19.2557571 9.83996272 22 13 C13.64653992 11.63945396 6.33314366 6.45306102 0 1 C0 0.67 0 0.34 0 0 Z " fill="#BBD8EA" transform="translate(196,239)"/>
<path d="M0 0 C2.97752446 0.33083605 4.81374721 0.87415352 7.3125 2.5625 C9.78719807 6.13706388 9.28590207 8.71146895 9 13 C8.34 13 7.68 13 7 13 C6.67 14.32 6.34 15.64 6 17 C4.35 17 2.7 17 1 17 C1.45375 16.62875 1.9075 16.2575 2.375 15.875 C4.59214571 13.31675495 5.34821908 11.32408271 6 8 C4.53502838 3.99060398 3.57596197 2.38397465 0 0 Z " fill="#B1D0E5" transform="translate(420,197)"/>
<path d="M0 0 C0.33 1.32 0.66 2.64 1 4 C0.030625 4.226875 -0.93875 4.45375 -1.9375 4.6875 C-5.29381041 6.6898418 -5.29381041 6.6898418 -5.62109375 10.09375 C-5.85492153 13.40331244 -5.99053513 16.68256258 -6 20 C-5.01 20.33 -4.02 20.66 -3 21 C-2.67 21.99 -2.34 22.98 -2 24 C-2.99 24 -3.98 24 -5 24 C-7.63230382 20.05154427 -7.94535135 16.69197718 -8 12 C-7.16508088 8.08230259 -6.10983214 4.42847723 -4 1 C-2 0 -2 0 0 0 Z " fill="#8C9BBF" transform="translate(351,143)"/>
<path d="M0 0 C0.33 1.32 0.66 2.64 1 4 C-0.32 4.33 -1.64 4.66 -3 5 C-2.938125 5.928125 -2.87625 6.85625 -2.8125 7.8125 C-3 11 -3 11 -4.375 12.875 C-6 14 -6 14 -8 14 C-8 15.65 -8 17.3 -8 19 C-9.98 19.99 -9.98 19.99 -12 21 C-10.41371037 15.48403832 -8.8584239 11.37288042 -5 7 C-4.67 6.01 -4.34 5.02 -4 4 C-2.70644173 2.62804426 -1.37701298 1.28817344 0 0 Z " fill="#5E73A6" transform="translate(187,132)"/>
<path d="M0 0 C4.455 0.99 4.455 0.99 9 2 C9 2.99 9 3.98 9 5 C7.3603125 5.5259375 7.3603125 5.5259375 5.6875 6.0625 C2.53564713 7.37683541 1.37683541 8.53564713 0.0625 11.6875 C-0.288125 12.780625 -0.63875 13.87375 -1 15 C-2.0516399 11.84508031 -1.98032423 10.96644412 -1.1875 7.875 C-1.01605469 7.17117187 -0.84460938 6.46734375 -0.66796875 5.7421875 C0 4 0 4 2 3 C1.34 2.67 0.68 2.34 0 2 C0 1.34 0 0.68 0 0 Z " fill="#EBCEA3" transform="translate(264,161)"/>
<path d="M0 0 C3.40038985 -0.35042185 6.6145931 -0.5412406 10 0 C12.625 3 12.625 3 14 6 C13.67 6.66 13.34 7.32 13 8 C10.69 7.01 8.38 6.02 6 5 C6 4.34 6 3.68 6 3 C5.38125 2.87625 4.7625 2.7525 4.125 2.625 C2 2 2 2 0 0 Z " fill="#07297D" transform="translate(423,142)"/>
<path d="M0 0 C2 1 4 2 6 3 C4.75 4.5625 4.75 4.5625 3 6 C2.401875 5.835 1.80375 5.67 1.1875 5.5 C-1.21045932 4.70818557 -1.21045932 4.70818557 -4 6.5 C-7.26594121 8.13297061 -7.74195318 8.0672912 -11 7 C-9.54261898 6.01941648 -8.08406325 5.04057868 -6.625 4.0625 C-5.81289062 3.51722656 -5.00078125 2.97195312 -4.1640625 2.41015625 C-2 1 -2 1 0 0 Z " fill="#485E9C" transform="translate(210,114)"/>
<path d="M0 0 C6.05537521 0.30276876 9.51483458 3.27754038 14 7 C11.28253006 8.35873497 10.03911692 8.47275152 7 8 C4.41399167 6.25632219 2.08675285 4.32128703 0 2 C0 1.34 0 0.68 0 0 Z " fill="#46619C" transform="translate(245,199)"/>
<path d="M0 0 C0.33 0.66 0.66 1.32 1 2 C1.66 2.33 2.32 2.66 3 3 C3.6328125 5.28515625 3.6328125 5.28515625 4.125 8.0625 C4.29257812 8.98160156 4.46015625 9.90070313 4.6328125 10.84765625 C4.75398438 11.55792969 4.87515625 12.26820313 5 13 C4.01 13.33 3.02 13.66 2 14 C1.67 13.34 1.34 12.68 1 12 C0.01 12.495 0.01 12.495 -1 13 C-1.66 12.67 -2.32 12.34 -3 12 C-3 11.34 -3 10.68 -3 10 C-2.01 9.67 -1.02 9.34 0 9 C-0.185625 7.88625 -0.37125 6.7725 -0.5625 5.625 C-1 2 -1 2 0 0 Z " fill="#3D5696" transform="translate(333,150)"/>
<path d="M0 0 C0 3 0 3 -1.93359375 5.26171875 C-2.75988281 6.06222656 -3.58617187 6.86273438 -4.4375 7.6875 C-5.26121094 8.49574219 -6.08492188 9.30398437 -6.93359375 10.13671875 C-9 12 -9 12 -10 12 C-10.3125 8.6875 -10.3125 8.6875 -10 5 C-7.02885279 2.53819231 -3.60191709 1.33785492 0 0 Z " fill="#5A72A9" transform="translate(275,138)"/>
<path d="M0 0 C0 1.32 0 2.64 0 4 C2.31 4 4.62 4 7 4 C7 4.33 7 4.66 7 5 C5.741875 5.020625 4.48375 5.04125 3.1875 5.0625 C2.47980469 5.07410156 1.77210938 5.08570313 1.04296875 5.09765625 C-1 5 -1 5 -4 4 C-4.99 4.495 -4.99 4.495 -6 5 C-11.438918 5.55564585 -15.52479327 5.46467618 -20 2 C-18.125 1.375 -18.125 1.375 -16 1 C-15.34 1.66 -14.68 2.32 -14 3 C-10.91652174 3.16681109 -10.91652174 3.16681109 -8 3 C-8 2.67 -8 2.34 -8 2 C-2.25 0 -2.25 0 0 0 Z " fill="#C8E2F1" transform="translate(428,217)"/>
<path d="M0 0 C0.99 0.33 1.98 0.66 3 1 C2.01 3.97 1.02 6.94 0 10 C-0.33 10 -0.66 10 -1 10 C-1.33 8.35 -1.66 6.7 -2 5 C-2.99 4.67 -3.98 4.34 -5 4 C-5.33 7.96 -5.66 11.92 -6 16 C-6.33 16 -6.66 16 -7 16 C-7 11.71 -7 7.42 -7 3 C-5.68 2.34 -4.36 1.68 -3 1 C-2.01 1.33 -1.02 1.66 0 2 C0 1.34 0 0.68 0 0 Z " fill="#0E2875" transform="translate(352,147)"/>
<path d="M0 0 C0.66 0.66 1.32 1.32 2 2 C1.01 2.33 0.02 2.66 -1 3 C-1 2.34 -1 1.68 -1 1 C-4.63 1 -8.26 1 -12 1 C-12.66 2.32 -13.32 3.64 -14 5 C-17.125 6.75 -17.125 6.75 -20 8 C-19.05439197 4.81931844 -18.36909169 3.27931263 -15.6875 1.25 C-10.13731732 -1.33148032 -5.92093039 -1.06770876 0 0 Z " fill="#7787B0" transform="translate(399,141)"/>
<path d="M0 0 C7.48720589 -0.36822324 7.48720589 -0.36822324 9.62109375 1.1640625 C11.37983053 3.50572336 12.26654354 5.80662014 13.25 8.5625 C13.60578125 9.53316406 13.9615625 10.50382813 14.328125 11.50390625 C15 14 15 14 14 16 C10.31903365 11.25036599 9.41330414 7.99291003 9 2 C6.03 1.67 3.06 1.34 0 1 C0 0.67 0 0.34 0 0 Z " fill="#BCD7E9" transform="translate(318,181)"/>
<path d="M0 0 C0.66 0.33 1.32 0.66 2 1 C1.67 1.66 1.34 2.32 1 3 C2.65 2.34 4.3 1.68 6 1 C3.24479785 3.95929119 0.53372712 6.03681826 -3 8 C-3.33 7.67 -3.66 7.34 -4 7 C-4 8.65 -4 10.3 -4 12 C-6.15827162 8.76259258 -6.73320331 7.75766697 -6 4 C-3 1.6875 -3 1.6875 0 0 Z " fill="#F2EFE4" transform="translate(252,159)"/>
<path d="M0 0 C1.98 0 3.96 0 6 0 C6 2.31 6 4.62 6 7 C4.02 7 2.04 7 0 7 C0 4.69 0 2.38 0 0 Z " fill="#06277F" transform="translate(469,164)"/>
<path d="M0 0 C0.66 0 1.32 0 2 0 C1.979375 1.03125 1.95875 2.0625 1.9375 3.125 C1.99276661 6.55152969 2.34550715 9.64572414 3 13 C1.02 13 -0.96 13 -3 13 C-3 11.68 -3 10.36 -3 9 C-2.34 8.67 -1.68 8.34 -1 8 C-0.53476937 6.10466658 -0.53476937 6.10466658 -0.375 3.9375 C-0.25125 2.638125 -0.1275 1.33875 0 0 Z " fill="#84B8DF" transform="translate(309,207)"/>
<path d="M0 0 C7.43639576 0.48763251 7.43639576 0.48763251 10.0625 2.875 C11 5 11 5 10 8 C4.98886765 6.5682479 3.05530451 4.01554307 0 0 Z " fill="#213D81" transform="translate(253,206)"/>
<path d="M0 0 C1.17426264 2.34852528 1.11508173 3.73774065 1.09765625 6.3515625 C1.09443359 7.20234375 1.09121094 8.053125 1.08789062 8.9296875 C1.07951172 9.81914062 1.07113281 10.70859375 1.0625 11.625 C1.05798828 12.5221875 1.05347656 13.419375 1.04882812 14.34375 C1.03702591 16.56256648 1.02056155 18.78125018 1 21 C-2.30101828 17.89610675 -2.64032623 15.8752093 -3.01171875 11.42578125 C-2.99422029 7.80360085 -2.66361377 2.66361377 0 0 Z " fill="#B9D4E8" transform="translate(405,195)"/>
<path d="M0 0 C2.97 0 5.94 0 9 0 C8.54663921 4.87362847 7.2910841 7.39042389 4 11 C3.01 10.67 2.02 10.34 1 10 C1.66 10 2.32 10 3 10 C3 9.01 3 8.02 3 7 C2.01 6.67 1.02 6.34 0 6 C1.65 6 3.3 6 5 6 C4.67 4.68 4.34 3.36 4 2 C5.32 1.67 6.64 1.34 8 1 C5.36 1 2.72 1 0 1 C0 0.67 0 0.34 0 0 Z " fill="#7486B4" transform="translate(365,161)"/>
<path d="M0 0 C0.33 0 0.66 0 1 0 C1.76681614 9.57668161 1.76681614 9.57668161 -0.11328125 13.06640625 C-1.5 14.6875 -1.5 14.6875 -4 17 C-5 15 -5 15 -4.00390625 11.5234375 C-3.53099953 10.13802064 -3.05018356 8.75528453 -2.5625 7.375 C-2.31951172 6.66859375 -2.07652344 5.9621875 -1.82617188 5.234375 C-1.22412795 3.48726713 -0.61291983 1.74332214 0 0 Z " fill="#5C70A6" transform="translate(310,152)"/>
<path d="M0 0 C2 2 2 2 2.265625 4.49609375 C2.26046875 5.46675781 2.2553125 6.43742188 2.25 7.4375 C2.25515625 8.40558594 2.2603125 9.37367188 2.265625 10.37109375 C2 13 2 13 0 16 C-1.03354508 12.89936477 -1.13364996 10.68555932 -1.125 7.4375 C-1.12757813 6.46683594 -1.13015625 5.49617187 -1.1328125 4.49609375 C-1 2 -1 2 0 0 Z " fill="#4D619D" transform="translate(378,149)"/>
<path d="M0 0 C2.38564077 0.57584432 4.66682784 1.22227595 7 2 C6.67 2.99 6.34 3.98 6 5 C5.67 5 5.34 5 5 5 C4.67 6.98 4.34 8.96 4 11 C2.29159719 9.36587557 1.06546953 8.13093906 0 6 C-0.039992 4.00039988 -0.04346799 1.99952758 0 0 Z " fill="#123086" transform="translate(449,148)"/>
<path d="M0 0 C0.33 0.99 0.66 1.98 1 3 C1.99 3.33 2.98 3.66 4 4 C3.67 4.99 3.34 5.98 3 7 C3.99 7 4.98 7 6 7 C6 8.98 6 10.96 6 13 C6.66 13 7.32 13 8 13 C8 14.65 8 16.3 8 18 C5.74029533 15.13726564 3.9628316 12.25110369 2.3125 9 C1.87550781 8.154375 1.43851563 7.30875 0.98828125 6.4375 C0 4 0 4 0 0 Z " fill="#BAD8EB" transform="translate(173,204)"/>
<path d="M0 0 C0.66 0.66 1.32 1.32 2 2 C-1.22397192 3.07465731 -3.67470786 3.16691803 -7.0625 3.1875 C-8.12597656 3.20167969 -9.18945312 3.21585938 -10.28515625 3.23046875 C-13 3 -13 3 -15 1 C-9.86813609 -1.23696632 -5.37794962 -1.3337315 0 0 Z " fill="#677AA5" transform="translate(366,141)"/>
<path d="M0 0 C-2.1385485 2.1385485 -3.13275314 2.42655063 -6 3 C-4.68 3.99 -3.36 4.98 -2 6 C-9.75 5.25 -9.75 5.25 -12 3 C-11.34 3 -10.68 3 -10 3 C-10 2.34 -10 1.68 -10 1 C-3.375 -1.125 -3.375 -1.125 0 0 Z " fill="#E4C28B" transform="translate(230,179)"/>
<path d="M0 0 C0.99 0 1.98 0 3 0 C3 0.99 3 1.98 3 3 C1.40084119 3.69906942 -0.20455045 4.38389468 -1.8125 5.0625 C-2.70582031 5.44535156 -3.59914062 5.82820312 -4.51953125 6.22265625 C-7 7 -7 7 -10 6 C-9.34 6 -8.68 6 -8 6 C-8 5.34 -8 4.68 -8 4 C-4.91190305 2.23537317 -3.76687864 2 0 2 C0 1.34 0 0.68 0 0 Z " fill="#576AA0" transform="translate(230,169)"/>
<path d="M0 0 C0.66 0.33 1.32 0.66 2 1 C2 3.64 2 6.28 2 9 C0.35 9.33 -1.3 9.66 -3 10 C-3.33 8.35 -3.66 6.7 -4 5 C-3.01 4.67 -2.02 4.34 -1 4 C-0.26676204 1.98491642 -0.26676204 1.98491642 0 0 Z " fill="#0A2878" transform="translate(336,162)"/>
<path d="M0 0 C1.25460729 2.50921458 0.86211613 3.38830225 0.1875 6.0625 C0.01605469 6.77535156 -0.15539062 7.48820313 -0.33203125 8.22265625 C-1 10 -1 10 -3 11 C-4.99960012 11.039992 -7.00047242 11.04346799 -9 11 C-7 9.66666667 -5 8.33333333 -3 7 C-2.67 6.01 -2.34 5.02 -2 4 C-3.32 3.67 -4.64 3.34 -6 3 C-4.02 2.01 -2.04 1.02 0 0 Z " fill="#E7D6B9" transform="translate(239,167)"/>
<path d="M0 0 C0.99 0.66 1.98 1.32 3 2 C3.1875 5.125 3.1875 5.125 3 8 C-0.63 8 -4.26 8 -8 8 C-7.67 6.02 -7.34 4.04 -7 2 C-6.67 3.32 -6.34 4.64 -6 6 C-4.02 6 -2.04 6 0 6 C0 4.02 0 2.04 0 0 Z " fill="#C9E1EF" transform="translate(325,200)"/>
<path d="M0 0 C2.18975773 3.28463659 2.99806563 6.20696275 4 10 C0.7 10 -2.6 10 -6 10 C-5.67 9.34 -5.34 8.68 -5 8 C-3.35 8 -1.7 8 0 8 C0 5.36 0 2.72 0 0 Z " fill="#6F7FAE" transform="translate(338,163)"/>
<path d="M0 0 C-0.1875 2.375 -0.1875 2.375 -1 5 C-3.5 6.125 -3.5 6.125 -6 7 C-6.33 7.99 -6.66 8.98 -7 10 C-7 8.02 -7 6.04 -7 4 C-6.34 4 -5.68 4 -5 4 C-4.67 3.01 -4.34 2.02 -4 1 C-2 0 -2 0 0 0 Z " fill="#6676A9" transform="translate(418,143)"/>
<path d="M0 0 C0.66 0.66 1.32 1.32 2 2 C2.66 1.67 3.32 1.34 4 1 C4 2.32 4 3.64 4 5 C3.34 5 2.68 5 2 5 C1.67 6.98 1.34 8.96 1 11 C-0.64284201 8.04288438 -1.6442194 5.37991574 -2 2 C-1.34 1.34 -0.68 0.68 0 0 Z " fill="#4B62A1" transform="translate(318,145)"/>
<path d="M0 0 C0.99 0.33 1.98 0.66 3 1 C2.01 1.66 1.02 2.32 0 3 C-0.55534301 7.83941768 -0.72429524 9.91355714 2 14 C2.66 14.66 3.32 15.32 4 16 C1.03824877 15.38722388 -0.38058783 14.74627478 -3 13 C-2.88652381 11.02013918 -2.7589065 9.04108402 -2.625 7.0625 C-2.55539062 5.96035156 -2.48578125 4.85820312 -2.4140625 3.72265625 C-2.27742188 2.82417969 -2.14078125 1.92570313 -2 1 C-1.34 0.67 -0.68 0.34 0 0 Z " fill="#C4DFF0" transform="translate(413,198)"/>
<path d="M0 0 C0.33 0 0.66 0 1 0 C1 2.31 1 4.62 1 7 C1.99 7.33 2.98 7.66 4 8 C5.125 11.4375 5.125 11.4375 6 15 C6.33 15.66 6.66 16.32 7 17 C3.69098884 15.9730655 2.9780362 14.96077893 1.25 11.875 C-0.31997664 7.84397889 -0.22556434 4.28572244 0 0 Z " fill="#8494BD" transform="translate(410,153)"/>
<path d="M0 0 C0.66 0.66 1.32 1.32 2 2 C1.9765625 4.1640625 1.9765625 4.1640625 1.625 6.625 C1.51414062 7.44226563 1.40328125 8.25953125 1.2890625 9.1015625 C1.19367188 9.72804687 1.09828125 10.35453125 1 11 C-0.98 11.66 -2.96 12.32 -5 13 C-5.33 11.68 -5.66 10.36 -6 9 C-5.01 9.33 -4.02 9.66 -3 10 C-2.67 9.01 -2.34 8.02 -2 7 C-1.67 7 -1.34 7 -1 7 C-0.67 4.69 -0.34 2.38 0 0 Z " fill="#314A90" transform="translate(385,153)"/>
<path d="M0 0 C0.66 0.99 1.32 1.98 2 3 C1.7009375 3.56460938 1.401875 4.12921875 1.09375 4.7109375 C-0.34016314 7.71191285 -1.24825756 10.80136441 -2.21875 13.9765625 C-3 16 -3 16 -5 18 C-5 16.68 -5 15.36 -5 14 C-4.34 14 -3.68 14 -3 14 C-2.95101563 13.32453125 -2.90203125 12.6490625 -2.8515625 11.953125 C-2.77679688 11.06109375 -2.70203125 10.1690625 -2.625 9.25 C-2.55539062 8.36828125 -2.48578125 7.4865625 -2.4140625 6.578125 C-2.00149945 4.00933618 -1.28839043 2.24158985 0 0 Z " fill="#89B8DE" transform="translate(316,188)"/>
<path d="M0 0 C7.14677104 -0.32485323 7.14677104 -0.32485323 10 2 C10.75 5.125 10.75 5.125 11 8 C9.68 7.34 8.36 6.68 7 6 C7 5.01 7 4.02 7 3 C4.69 2.34 2.38 1.68 0 1 C0 0.67 0 0.34 0 0 Z " fill="#EBD1A8" transform="translate(228,186)"/>
<path d="M0 0 C8.35010941 2.3107221 8.35010941 2.3107221 11.0625 5.1875 C11.371875 5.785625 11.68125 6.38375 12 7 C11.01 7 10.02 7 9 7 C8.67 6.01 8.34 5.02 8 4 C4.37 3.67 0.74 3.34 -3 3 C-2.01 2.01 -1.02 1.02 0 0 Z " fill="#7A8BAF" transform="translate(462,139)"/>
<path d="M0 0 C0 0.99 0 1.98 0 3 C-4.49656104 5.24828052 -8.07872966 5.16682272 -13 5 C-12.38125 4.71125 -11.7625 4.4225 -11.125 4.125 C-8.86674235 3.06279958 -8.86674235 3.06279958 -7 1 C-4.67724823 0.59952556 -2.34260643 0.2602896 0 0 Z " fill="#24408C" transform="translate(369,142)"/>
<path d="M0 0 C4.71403788 0.47939368 8.66579301 0.96834048 13 3 C10 5 10 5 7.7734375 4.609375 C6.98195313 4.32578125 6.19046875 4.0421875 5.375 3.75 C4.57835937 3.47671875 3.78171875 3.2034375 2.9609375 2.921875 C1 2 1 2 0 0 Z " fill="#6675AB" transform="translate(260,108)"/>
<path d="M0 0 C0.66 0 1.32 0 2 0 C2 0.99 2 1.98 2 3 C4.31 3 6.62 3 9 3 C9 3.66 9 4.32 9 5 C4.71 4.67 0.42 4.34 -4 4 C-2.68 3.34 -1.36 2.68 0 2 C0 1.34 0 0.68 0 0 Z " fill="#D7E7F1" transform="translate(366,217)"/>
<path d="M0 0 C0.33 0 0.66 0 1 0 C1 2.97 1 5.94 1 9 C0.01 9.33 -0.98 9.66 -2 10 C-7.63380282 6.73239437 -7.63380282 6.73239437 -9 4 C-8.236875 4.309375 -7.47375 4.61875 -6.6875 4.9375 C-4.81210323 5.67893593 -2.91315348 6.36228217 -1 7 C-0.67 4.69 -0.34 2.38 0 0 Z " fill="#BE9E6C" transform="translate(246,190)"/>
<path d="M0 0 C1.98073365 0.280828 3.95958448 0.57496614 5.9375 0.875 C7.59072266 1.11863281 7.59072266 1.11863281 9.27734375 1.3671875 C10.17582031 1.57601562 11.07429687 1.78484375 12 2 C12.33 2.66 12.66 3.32 13 4 C11.39620659 4.05416188 9.79188594 4.09286638 8.1875 4.125 C7.29417969 4.14820313 6.40085938 4.17140625 5.48046875 4.1953125 C3 4 3 4 0 2 C0 1.34 0 0.68 0 0 Z " fill="#B9D6EC" transform="translate(197,181)"/>
<path d="M0 0 C1.52299523 2.93720508 2.80100302 5.9168649 4 9 C3.01 9.495 3.01 9.495 2 10 C-1 8 -1 8 -1.8125 5.5625 C-2 3 -2 3 0 0 Z " fill="#052788" transform="translate(415,157)"/>
<path d="M0 0 C-2.34240025 2.34240025 -3.17088283 2.36283032 -6.375 2.6875 C-7.14585937 2.77386719 -7.91671875 2.86023438 -8.7109375 2.94921875 C-11.01248374 3.00027694 -12.80691012 2.66593825 -15 2 C-9.68670645 -0.08989546 -5.71271928 -1.6112798 0 0 Z " fill="#53699F" transform="translate(231,109)"/>
<path d="M0 0 C3.91402949 1.26941497 5.79072873 2.51167694 8 6 C7.01 6.66 6.02 7.32 5 8 C2.5 5.6875 2.5 5.6875 0 3 C0 2.01 0 1.02 0 0 Z " fill="#0B3188" transform="translate(260,212)"/>
<path d="M0 0 C0.66 0 1.32 0 2 0 C2 0.66 2 1.32 2 2 C3.32 1.67 4.64 1.34 6 1 C5.34 3.97 4.68 6.94 4 10 C1.04816899 7.04816899 0.91336012 4.04488053 0 0 Z " fill="#D9A75C" transform="translate(258,166)"/>
<path d="M0 0 C1.5 1.375 1.5 1.375 3 3 C3 3.66 3 4.32 3 5 C-1.62 5 -6.24 5 -11 5 C-10.67 3.68 -10.34 2.36 -10 1 C-9.34 1.66 -8.68 2.32 -8 3 C-5.34462628 3.56520003 -2.70855287 3.73788198 0 4 C0 2.68 0 1.36 0 0 Z " fill="#E1EBFC" transform="translate(430,149)"/>
<path d="M0 0 C0.66 0 1.32 0 2 0 C1.8125 2.875 1.8125 2.875 1 6 C-1.5625 7.375 -1.5625 7.375 -4 8 C-4 6.35 -4 4.7 -4 3 C-3.01 3 -2.02 3 -1 3 C-0.67 2.01 -0.34 1.02 0 0 Z " fill="#143086" transform="translate(473,146)"/>
<path d="M0 0 C6.0546875 -0.1953125 6.0546875 -0.1953125 8 0 C8.66 0.66 9.32 1.32 10 2 C7.69 2.33 5.38 2.66 3 3 C2.67 3.99 2.34 4.98 2 6 C1.34 6 0.68 6 0 6 C0 4.02 0 2.04 0 0 Z " fill="#7B8CB6" transform="translate(386,147)"/>
<path d="M0 0 C2.5 1.1875 2.5 1.1875 5 3 C5.3125 5.6875 5.3125 5.6875 5 8 C3.68 7.67 2.36 7.34 1 7 C0.67 4.69 0.34 2.38 0 0 Z " fill="#7CBBED" transform="translate(407,209)"/>
<path d="M0 0 C3.79379058 1.49041773 5.68343758 3.69062512 8 7 C8 7.66 8 8.32 8 9 C7.01 9 6.02 9 5 9 C2.77051019 6.04920467 1.17140125 3.51420376 0 0 Z " fill="#54679B" transform="translate(433,142)"/>
<path d="M0 0 C1.71017726 2.5652659 2.90417811 4.87960965 4.125 7.6875 C4.47820312 8.49574219 4.83140625 9.30398437 5.1953125 10.13671875 C5.46085937 10.75160156 5.72640625 11.36648437 6 12 C2.83884224 10.63016497 2.0072908 10.0109362 0 7 C-0.07905064 4.66800612 -0.08798769 2.33167378 0 0 Z " fill="#B4D5E7" transform="translate(346,208)"/>
<path d="M0 0 C3.34252724 -0.07427838 5.8035914 -0.06546953 9 1 C9 1.66 9 2.32 9 3 C5.42355152 4.2380014 2.66305234 3.74926071 -1 3 C-0.67 2.01 -0.34 1.02 0 0 Z " fill="#A6CBE5" transform="translate(385,190)"/>
<path d="M0 0 C2.00720923 0.28674418 4.0085944 0.61866701 6 1 C6 1.33 6 1.66 6 2 C4.02 2 2.04 2 0 2 C0 2.99 0 3.98 0 5 C-1.65 4.67 -3.3 4.34 -5 4 C-5 3.34 -5 2.68 -5 2 C-5.66 1.67 -6.32 1.34 -7 1 C-5.5459375 1.0309375 -5.5459375 1.0309375 -4.0625 1.0625 C-1.12534105 1.35618499 -1.12534105 1.35618499 0 0 Z " fill="#C2DDEF" transform="translate(428,189)"/>
<path d="M0 0 C0.99 0.33 1.98 0.66 3 1 C1.62845496 3.95409701 0.01136276 6.44008376 -2 9 C-2.99 8.67 -3.98 8.34 -5 8 C-4 5 -4 5 -1 3 C-0.67 2.01 -0.34 1.02 0 0 Z " fill="#6272A6" transform="translate(404,163)"/>
<path d="M0 0 C0.66 0 1.32 0 2 0 C2.99 3.96 3.98 7.92 5 12 C4.34 11.67 3.68 11.34 3 11 C2.375 7.9375 2.375 7.9375 2 5 C1.34 5 0.68 5 0 5 C-0.33 5.66 -0.66 6.32 -1 7 C-0.67 4.69 -0.34 2.38 0 0 Z " fill="#C59D76" transform="translate(242,158)"/>
<path d="M0 0 C2.64 0 5.28 0 8 0 C8 0.99 8 1.98 8 3 C2.25 4.125 2.25 4.125 0 3 C0 2.01 0 1.02 0 0 Z " fill="#042687" transform="translate(460,143)"/>
<path d="M0 0 C0.99 0 1.98 0 3 0 C3.33 2.31 3.66 4.62 4 7 C3.01 7.495 3.01 7.495 2 8 C1.01 5.69 0.02 3.38 -1 1 C-0.67 0.67 -0.34 0.34 0 0 Z " fill="#7EBAEE" transform="translate(325,190)"/>
<path d="M0 0 C-2.1875 2.0625 -2.1875 2.0625 -5 4 C-7.8125 3.75 -7.8125 3.75 -10 3 C-8 0 -8 0 -5 -0.75 C-2 -1 -2 -1 0 0 Z " fill="#E6A049" transform="translate(238,178)"/>
<path d="M0 0 C0.66 0 1.32 0 2 0 C1.649375 0.5775 1.29875 1.155 0.9375 1.75 C-0.14917407 4.35801776 0.06934867 5.39417629 1 8 C0.34 8 -0.32 8 -1 8 C-1.33 8.66 -1.66 9.32 -2 10 C-2.66 10 -3.32 10 -4 10 C-3.34 7.36 -2.68 4.72 -2 2 C-1.34 2 -0.68 2 0 2 C0 1.34 0 0.68 0 0 Z " fill="#DDA154" transform="translate(242,163)"/>
<path d="M0 0 C2.4375 0.8125 2.4375 0.8125 5 2 C5.33 2.99 5.66 3.98 6 5 C4.68 6.32 3.36 7.64 2 9 C2.33 6.69 2.66 4.38 3 2 C2.01 2.33 1.02 2.66 0 3 C0 2.01 0 1.02 0 0 Z " fill="#7C8DB5" transform="translate(283,117)"/>
<path d="M0 0 C1.32 0.66 2.64 1.32 4 2 C4 3.65 4 5.3 4 7 C2.35 7 0.7 7 -1 7 C-0.67 4.69 -0.34 2.38 0 0 Z " fill="#1C387E" transform="translate(284,237)"/>
<path d="M0 0 C0.66 0 1.32 0 2 0 C1.745504 1.48206495 1.47088238 2.96068615 1.1875 4.4375 C1.03667969 5.26121094 0.88585937 6.08492187 0.73046875 6.93359375 C0.48941406 7.61550781 0.24835938 8.29742187 0 9 C-0.99 9.33 -1.98 9.66 -3 10 C-3 9.34 -3 8.68 -3 8 C-2.34 8 -1.68 8 -1 8 C-1.020625 6.865625 -1.04125 5.73125 -1.0625 4.5625 C-1 1 -1 1 0 0 Z " fill="#1B2D61" transform="translate(240,158)"/>
<path d="M0 0 C0.99 1.32 1.98 2.64 3 4 C-1.455 5.485 -1.455 5.485 -6 7 C-6 6.01 -6 5.02 -6 4 C-4.02 3.67 -2.04 3.34 0 3 C0 2.01 0 1.02 0 0 Z " fill="#4F68A7" transform="translate(386,161)"/>
<path d="M0 0 C1.875 0.125 1.875 0.125 4 1 C5.25 4.0625 5.25 4.0625 6 7 C3.5625 6.3125 3.5625 6.3125 1 5 C0.1875 2.375 0.1875 2.375 0 0 Z " fill="#37518E" transform="translate(416,158)"/>
<path d="M0 0 C3 -0.3125 3 -0.3125 6 0 C6.66 0.66 7.32 1.32 8 2 C4.7 2.33 1.4 2.66 -2 3 C-1.34 2.01 -0.68 1.02 0 0 Z " fill="#032988" transform="translate(356,143)"/>
<path d="M0 0 C-2.95711562 1.64284201 -5.62008426 2.6442194 -9 3 C-9.66 2.34 -10.32 1.68 -11 1 C-3.375 -1.125 -3.375 -1.125 0 0 Z " fill="#314A8A" transform="translate(223,112)"/>
<path d="M0 0 C0.33 0 0.66 0 1 0 C1.04241723 2.33294775 1.04092937 4.66702567 1 7 C0 8 0 8 -2.5625 8.0625 C-3.366875 8.041875 -4.17125 8.02125 -5 8 C-4.54625 7.608125 -4.0925 7.21625 -3.625 6.8125 C-1.72357081 4.69167513 -0.93795972 2.66957765 0 0 Z " fill="#C7E1F0" transform="translate(426,206)"/>
<path d="M0 0 C1.125 1.625 1.125 1.625 2 4 C1.125 7.25 1.125 7.25 0 10 C-0.66 10 -1.32 10 -2 10 C-1.54177532 6.53058454 -1.10868317 3.32604951 0 0 Z " fill="#8BB5DB" transform="translate(317,198)"/>
<path d="M0 0 C0.66 0.33 1.32 0.66 2 1 C2.40729228 3.32156597 2.74438677 5.6568787 3 8 C2.01 8.495 2.01 8.495 1 9 C0.67 7.02 0.34 5.04 0 3 C-0.66 3 -1.32 3 -2 3 C-2 2.34 -2 1.68 -2 1 C-1.34 0.67 -0.68 0.34 0 0 Z " fill="#232F64" transform="translate(244,155)"/>
<path d="M0 0 C0.33 1.32 0.66 2.64 1 4 C-0.65 4.66 -2.3 5.32 -4 6 C-4 4.35 -4 2.7 -4 1 C-2 0 -2 0 0 0 Z " fill="#57689E" transform="translate(351,143)"/>
<path d="M0 0 C0.33 1.32 0.66 2.64 1 4 C0.01 4 -0.98 4 -2 4 C-2 5.32 -2 6.64 -2 8 C-2.66 8 -3.32 8 -4 8 C-4 6.02 -4 4.04 -4 2 C-2.68 2 -1.36 2 0 2 C0 1.34 0 0.68 0 0 Z " fill="#12286F" transform="translate(485,140)"/>
<path d="M0 0 C2.97 0 5.94 0 9 0 C9 0.99 9 1.98 9 3 C8.01 3.33 7.02 3.66 6 4 C5.34 3.34 4.68 2.68 4 2 C2.68 2 1.36 2 0 2 C0 1.34 0 0.68 0 0 Z " fill="#0F2574" transform="translate(318,134)"/>
<path d="M0 0 C3.26954202 0.56371414 4.82575883 1.49962266 7 4 C6.67 4.99 6.34 5.98 6 7 C1.125 3.375 1.125 3.375 0 0 Z " fill="#B1D1E9" transform="translate(189,232)"/>
<path d="M0 0 C1.485 0.99 1.485 0.99 3 2 C3 3.32 3 4.64 3 6 C1.68 6 0.36 6 -1 6 C-0.67 4.02 -0.34 2.04 0 0 Z " fill="#80BAE6" transform="translate(335,213)"/>
<path d="M0 0 C0.33 0 0.66 0 1 0 C1.25 2.3125 1.25 2.3125 1 5 C-1 6.8125 -1 6.8125 -3 8 C-2.25 2.25 -2.25 2.25 0 0 Z " fill="#8CB8DA" transform="translate(408,193)"/>
<path d="M0 0 C2.31 0 4.62 0 7 0 C6.67 1.32 6.34 2.64 6 4 C6 3.34 6 2.68 6 2 C4.02 2.66 2.04 3.32 0 4 C0 2.68 0 1.36 0 0 Z " fill="#B7D3E3" transform="translate(346,189)"/>
<path d="M0 0 C0.66 0 1.32 0 2 0 C2 1.32 2 2.64 2 4 C0.68 4 -0.64 4 -2 4 C-2.33 4.66 -2.66 5.32 -3 6 C-3.66 5.34 -4.32 4.68 -5 4 C-4.34 3.34 -3.68 2.68 -3 2 C-2.01 2 -1.02 2 0 2 C0 1.34 0 0.68 0 0 Z " fill="#042886" transform="translate(314,160)"/>
<path d="M0 0 C0.33 0.66 0.66 1.32 1 2 C0.0625 4.625 0.0625 4.625 -1 7 C-2.65 6.67 -4.3 6.34 -6 6 C-4 4 -2 2 0 0 Z " fill="#EEECEC" transform="translate(260,153)"/>
<path d="M0 0 C1 2 1 2 0.25 5.5625 C-0.1625 6.696875 -0.575 7.83125 -1 9 C-1.99 9.33 -2.98 9.66 -4 10 C-3.52449439 8.51965236 -3.04448784 7.04074979 -2.5625 5.5625 C-2.29566406 4.73878906 -2.02882812 3.91507813 -1.75390625 3.06640625 C-1 1 -1 1 0 0 Z " fill="#8495BC" transform="translate(179,143)"/>
<path d="M0 0 C0.66 0 1.32 0 2 0 C2.66 1.65 3.32 3.3 4 5 C1.69 5 -0.62 5 -3 5 C-3 4.34 -3 3.68 -3 3 C-2.01 3 -1.02 3 0 3 C0 2.01 0 1.02 0 0 Z " fill="#0C2776" transform="translate(402,146)"/>
<path d="M0 0 C5.75 0.75 5.75 0.75 8 3 C5.6875 3.625 5.6875 3.625 3 4 C2.01 3.34 1.02 2.68 0 2 C0 1.34 0 0.68 0 0 Z " fill="#62729C" transform="translate(245,199)"/>
<path d="M0 0 C0.1875 2.875 0.1875 2.875 0 6 C-0.99 6.66 -1.98 7.32 -3 8 C-3 5.69 -3 3.38 -3 1 C-1 0 -1 0 0 0 Z " fill="#355195" transform="translate(268,142)"/>
<path d="M0 0 C0.33 0 0.66 0 1 0 C1.33 2.97 1.66 5.94 2 9 C1.01 8.34 0.02 7.68 -1 7 C-1.25 3.9375 -1.25 3.9375 -1 1 C-0.67 0.67 -0.34 0.34 0 0 Z " fill="#495C8F" transform="translate(486,162)"/>
<path d="M0 0 C-0.33 1.32 -0.66 2.64 -1 4 C-3.92879371 3.37240135 -6.36095629 2.41377341 -9 1 C-5.846632 0.29925156 -3.27275026 0 0 0 Z " fill="#899BBE" transform="translate(365,147)"/>
<path d="M0 0 C2 1 2 1 2 1 Z " fill="#FFFFFF" transform="translate(406,155)"/>
<path d="M0 0 C2 1 2 1 2 1 Z " fill="#FFFFFF" transform="translate(495,139)"/>
<path d="" fill="#FFFFFF" transform="translate(0,0)"/>
<path d="" fill="#FFFFFF" transform="translate(0,0)"/>
<path d="" fill="#FFFFFF" transform="translate(0,0)"/>
<path d="" fill="#FFFFFF" transform="translate(0,0)"/>
<path d="" fill="#FFFFFF" transform="translate(0,0)"/>
<path d="" fill="#FFFFFF" transform="translate(0,0)"/>
<path d="" fill="#FFFFFF" transform="translate(0,0)"/>
<path d="" fill="#FFFFFF" transform="translate(0,0)"/>
<path d="" fill="#FFFFFF" transform="translate(0,0)"/>
<path d="" fill="#FFFFFF" transform="translate(0,0)"/>
<path d="" fill="#FFFFFF" transform="translate(0,0)"/>
<path d="" fill="#FFFFFF" transform="translate(0,0)"/>
<path d="" fill="#FFFFFF" transform="translate(0,0)"/>
<path d="" fill="#FFFFFF" transform="translate(0,0)"/>
<path d="" fill="#FFFFFF" transform="translate(0,0)"/>
<path d="" fill="#FFFFFF" transform="translate(0,0)"/>
</svg>
