<svg xmlns="http://www.w3.org/2000/svg" width="1521.25" height="769.23" viewBox="0 0 1521.25 769.23"><path d="M1143,767.82H759.86l3-383.65H1144Z" style="fill:#0064ff"/><path d="M384.49,383.77H764.42V767.3Z" style="fill:#0064ff"/><path d="M763.69,767.3l-381.84.4L383,384.17Z" style="fill:#ddeaf7"/><path d="M1138.85,382.82l.37,385.46-380.12,1Z" style="fill:#004dc3"/><path d="M1139.43,768.31l-.4-385.46L1519,384Z" style="fill:#a2c6ff"/><path d="M382.61,768.83H0V382.64Z" style="fill:#3684ff"/><path d="M1.52,383.77H381.45V767.3Z" style="fill:#004dc3"/><path d="M1521.25,385.31H1141.31V1.78Z" style="fill:#3684ff"/><path d="M1139.79,1.78h379.94V385.31Z" style="fill:#a2c6ff"/><path d="M1519.72,383.65V769.08H1137.91Z" style="fill:#6ba4ff"/><path d="M761.9,384.3V.77h379.93Z" style="fill:#c8ac24"/><path d="M1141.44,0l-.37,385.06-380.2-.76Z" style="fill:#ffdb0d"/><path d="M380.93,1.78H1V385.31Z" style="fill:#ddeaf7"/><path d="M761.9,383.77V.25H382Z" style="fill:#004dc3"/><path d="M1.52,383.77H381.45V.25Z" style="fill:#a2c6ff"/><path d="M382,.25V383.77H761.9Z" style="fill:#0064ff"/><path d="M1145.9,768.47c-4.43-211.44-171.69-382.4-379.26-382.4s-376.34,170-380.87,381.42Z" style="fill:#1b1b3a"/><path d="M630.32,694.49S628,706.77,626.86,719a8.71,8.71,0,0,0,.37,3.36,8.47,8.47,0,0,0,4.31,5,8.2,8.2,0,0,0,3.25.84c16.17.83,50.76,2.49,63.19,2.06a2.82,2.82,0,0,0,1.23-.36,2.79,2.79,0,0,0,1.2-3.38,6.12,6.12,0,0,0-3-3.38l-56.93-27.06Z" style="fill:#0064ff"/><path d="M628.62,687.28l1.61,14.85s10,4.79,16.84-.43l-4-16.57Z" style="fill:#a2c6ff"/><path d="M564.49,700.41s-3.5,6.14-7,22.83a5.4,5.4,0,0,0,0,2.12,5.2,5.2,0,0,0,.87,1.93,5.12,5.12,0,0,0,3.55,2.09c5.35.58,13.56,1.35,20.15,1.38a5.16,5.16,0,0,0,2.09-.44,5,5,0,0,0,1.73-1.26,5.07,5.07,0,0,0,1.07-1.87,5.17,5.17,0,0,0,.22-2.14,43.41,43.41,0,0,0-9.91-23.81Z" style="fill:#0064ff"/><path d="M561.63,681.33l3.86,22.46s4,3.07,12,1l-1.7-24.15Z" style="fill:#a2c6ff"/><path d="M547.74,569.46c1.64-11.2,4.86-24.54,8.3-38.6,4.74-19.45,4.07-32.3,5.1-49.61,1.74-28.62-9.33-68.11-9.45-68.76l56-7.64c0,.46-.22,3.78-.7,9.21l20.54-2.4a182.44,182.44,0,0,1,13.26,63.67c.45,21.84-2.07,47.74-4.29,70.57-1,10.83-2,21.05-2.55,29.48-1.28,19.92,11.12,86.8,16,110.89l-29.67,6.14c-1.88-9.21-18.24-91.41-16.53-119,.54-9,1.58-19.45,2.64-30.53,2.13-22-1.13-47.22-1.55-67.26a77.32,77.32,0,0,0-1.95-15.15c-.3,4.39-.6,8.83-.88,13.22-1.21,20.07-11.36,43.82-16.41,64.44-3.22,13.37-6.29,26-7.72,35.74-2.86,19.76,4.07,87.44,7,111.84l-30.06,3.68C553.52,680,543.82,596.8,547.74,569.46Z" style="fill:#ffdb0d"/><path d="M659.32,225.45c-49.12-1.29-103.34,12-103.34,12-15.44,86.13-4.32,185.72-4.32,185.72,38,10.43,81-5.37,81-5.37,6.66-36,37.11-137.18,37.11-137.18A160.52,160.52,0,0,0,730,261.87c-12.16-14.66-18-33.2-20.4-44.15A163.11,163.11,0,0,1,659.32,225.45Z" style="fill:#1b1b3a"/><path d="M794.3,150.62a4.66,4.66,0,0,1,.82-.28c-.42-5-1.43-14.91.18-17.06C805.45,119.6,825,102.6,825,102.6a4.74,4.74,0,0,1,.52,6.51L816,118.92a45.59,45.59,0,0,1,5.38,11,13.38,13.38,0,0,1-1.4,9.79,114.22,114.22,0,0,1-6.07,9.91,13.49,13.49,0,0,1-3.89,3.75,13.2,13.2,0,0,1-5,1.92c-1.76,10-15.2,73.64-75,106.78-12.16-14.67-18-33.2-20.4-44.15C748.65,206,786.79,181.36,794.3,150.62Z" style="fill:#a2c6ff"/><path d="M574.21,285.68,556,237.48s-46.17,31-54.11,70.88a107.94,107.94,0,0,1,39.79,11.16C545.22,300.72,574.21,285.68,574.21,285.68Z" style="fill:#1b1b3a"/><path d="M594,230.21l16.08-45.5-8.21-9.55,2.43-20.64,14.62-4.27a26.63,26.63,0,0,1,12.16-15.8c10.4-5.65,18.75,2.58,26.87,11,4.1,4.24,14.41,16.51,13.47,23.38-.52,3.81-5.51,2.58-7.12,3.44a9.38,9.38,0,0,0-4.47,4.26,9.54,9.54,0,0,0-.91,6.14v.86c.82,6.72,4.11,13.5-6.87,14.82a17.75,17.75,0,0,1-4.77-.25,30.45,30.45,0,0,1-7.39,0l-3.64,26.42a7.91,7.91,0,0,1-1.17,3.15,7.63,7.63,0,0,1-2.39,2.34c-18.63,11.66-33.92,4.64-38.14,2.24a1.67,1.67,0,0,1-.55-2Z" style="fill:#a2c6ff"/><path d="M635.61,185.47a7.64,7.64,0,1,0-7.57-7.64A7.61,7.61,0,0,0,635.61,185.47Z" style="fill:#004dc3"/><path d="M586.37,159.24a1.4,1.4,0,0,0,.92-1,1.61,1.61,0,0,0,0-.69,1.38,1.38,0,0,0-.34-.6c-2.16-2.24-4.5-6.87-.76-15a15.35,15.35,0,0,1,18-8.26,1.18,1.18,0,0,0,.59,0,1.17,1.17,0,0,0,.53-.27,1.32,1.32,0,0,0,.36-.48,1.29,1.29,0,0,0,.1-.59c0-3.06.85-8.71,8.76-12.27,8.42-3.71,14.37,2.61,16.65,5.65a1.47,1.47,0,0,0,.47.39,1.33,1.33,0,0,0,1.19,0,1.37,1.37,0,0,0,.47-.39c14.16-18.23,22.73,4.91,19.3,14s-19.85,13.32-30.82,15.83-8.08,4.63-8.08,4.63a34.56,34.56,0,0,0,4.68,10.28,1.34,1.34,0,0,1,.19.55,1.28,1.28,0,0,1-.05.58,1.24,1.24,0,0,1-.28.5,1.32,1.32,0,0,1-.47.34l-.79.33c-3.62-2-9.7-4.69-10.37.25s4.78,8,10.12,8.62l2.62,7.86a1.23,1.23,0,0,1,0,.66,1.35,1.35,0,0,1-.27.61,1.41,1.41,0,0,1-.54.4,1.32,1.32,0,0,1-.65.11c-11.25-1.45-21.52-12.46-23.8-15.07a1.32,1.32,0,0,0-.54-.36,1.26,1.26,0,0,0-.64-.07c-2.68.37-12.16,1-12.53-7.52a8.11,8.11,0,0,1,1.19-5.74A8,8,0,0,1,586.37,159.24Z" style="fill:#ffdb0d"/><path d="M603.42,376.93l28.24-99.47a2.83,2.83,0,0,1,.89-1.42,2.79,2.79,0,0,1,1.54-.67c5.11-.61,19.91-2.3,37-3.77,20.61-1.75,44.53-3.07,58.82-2a3,3,0,0,1,1.26.51,3.07,3.07,0,0,1,.92,1,3.24,3.24,0,0,1,.38,1.32,3,3,0,0,1-.23,1.36c-8.14,16.6-41.57,84.13-58.32,106.25a3.1,3.1,0,0,1-1,.84,2.9,2.9,0,0,1-1.28.33l-65.47-.62a3,3,0,0,1-2.21-1.22,3.11,3.11,0,0,1-.53-1.19A3.16,3.16,0,0,1,603.42,376.93Z" style="fill:#f3f4f6"/><path d="M501.84,308.36a107.56,107.56,0,0,1,39.79,11.16,19.89,19.89,0,0,0,3.44,15.35c13.43,19.76,48,6.38,62.46-.4a14.57,14.57,0,0,1,.39-3.72c1.58-5.79,4.65-13.22,14.89-11.56a148.19,148.19,0,0,1,22.31,6.13,5.9,5.9,0,0,1-2.83,4.83,5.84,5.84,0,0,1-5.56.27l4.84,3.77s-.7,6.14-7.27,2.82l4.47,5a5.16,5.16,0,0,1-5.64,2.67,5.09,5.09,0,0,1-2-.89C626.28,340.7,624,355,610.26,353l-.46-2c-23.58,13.56-79,39.14-102.36-4.79A55.47,55.47,0,0,1,501.84,308.36Z" style="fill:#a2c6ff"/><path d="M656,327.5a8.47,8.47,0,0,0,1.4,4.66,8.35,8.35,0,0,0,3.73,3.08,8.21,8.21,0,0,0,9-1.83,8.42,8.42,0,0,0,2.27-4.29,8.51,8.51,0,0,0-.49-4.84,8.37,8.37,0,0,0-3.07-3.76,8.23,8.23,0,0,0-10.47,1.06A8.35,8.35,0,0,0,656,327.5Z" style="fill:#1b1b3a"/><path d="M1417.75,143.29c30.22,0,54.71-24.73,54.71-55.23S1448,32.83,1417.75,32.83,1363,57.56,1363,88.06,1387.54,143.29,1417.75,143.29Z" style="fill:#1b1b3a"/><path d="M1410.06,75.2l-9.48-5a18.23,18.23,0,0,1,17-10.65c10.12,0,17,6.14,17,15,0,6.41-3.46,10-8.57,14.2a10.69,10.69,0,0,0-3.63,3.6,10.93,10.93,0,0,0-1.6,4.87v.49h-10.7V95.36a12.45,12.45,0,0,1,1.39-5.68,12.19,12.19,0,0,1,3.84-4.38l3.37-3.07c3.44-3.07,4.44-5.06,4.44-7.12a5.36,5.36,0,0,0-1.74-3.93,5.16,5.16,0,0,0-1.87-1.11,5.3,5.3,0,0,0-2.16-.27,8.13,8.13,0,0,0-4.44,1.6A8.24,8.24,0,0,0,1410.06,75.2Zm5.72,27.77a6.86,6.86,0,0,1,2.64.52,7,7,0,0,1,2.25,1.51,7.11,7.11,0,0,1,1.49,2.26,6.82,6.82,0,0,1,.51,2.67,6.91,6.91,0,0,1-2.15,4.59,6.79,6.79,0,0,1-9.34,0,6.48,6.48,0,0,1-.2-9.46,6.83,6.83,0,0,1,4.77-2.09Z" style="fill:#fff"/></svg>